<svg xmlns="http://www.w3.org/2000/svg" xmlns:xlink="http://www.w3.org/1999/xlink" width="1920" height="399.828" viewBox="0 0 1920 399.828"><defs><linearGradient id="a" x1="0.5" y1="1" x2="0.5" gradientUnits="objectBoundingBox"><stop offset="0" stop-color="gray" stop-opacity="0.251"/><stop offset="0.54" stop-color="gray" stop-opacity="0.122"/><stop offset="1" stop-color="gray" stop-opacity="0.102"/></linearGradient><linearGradient id="c" y1="1" y2="0" xlink:href="#a"/><linearGradient id="n" y1="1" y2="0" xlink:href="#a"/><linearGradient id="o" y1="1" y2="0" xlink:href="#a"/><linearGradient id="r" y1="1" y2="0" xlink:href="#a"/><linearGradient id="s" y1="1" y2="0" xlink:href="#a"/><linearGradient id="w" x1="0.582" y1="0.056" x2="0.466" y2="1.08" gradientUnits="objectBoundingBox"><stop offset="0" stop-color="#97f1fd"/><stop offset="1" stop-color="#48a2ea"/></linearGradient><linearGradient id="ac" x1="0.516" y1="-0.598" x2="0.537" y2="1.235" gradientUnits="objectBoundingBox"><stop offset="0" stop-color="#f8f6f4"/><stop offset="1" stop-color="#e7f6fd"/></linearGradient><linearGradient id="ad" x1="0.5" y1="1" x2="0.5" gradientUnits="objectBoundingBox"><stop offset="0" stop-color="gray" stop-opacity="0.251"/><stop offset="0.535" stop-color="gray" stop-opacity="0.122"/><stop offset="1" stop-color="gray" stop-opacity="0.102"/></linearGradient><linearGradient id="ae" x1="0.521" y1="0.502" x2="-0.134" y2="0.929" gradientUnits="objectBoundingBox"><stop offset="0" stop-color="#fade9a"/><stop offset="0.465" stop-color="#fad070"/><stop offset="1" stop-color="#edbc4c"/></linearGradient></defs><g transform="translate(-4417.246 1140.091)"><path d="M0,0,2,2.719V119.055l-2,6.033Z" transform="translate(5570 -959)" fill="#2260c6"/><path d="M0,0,2,2.719V119.055l-2,6.033Z" transform="translate(5925 -959)" fill="#2260c6"/><path d="M0,0,2,2V87.563L0,92Z" transform="translate(5884 -962)" fill="#2260c6"/><g transform="translate(6172.933 -1035.144)"><path d="M36.157,0H0V91.052H36.157Z" transform="translate(117.34 39.926)" fill="#c4d6ff"/><path d="M2.692,0H0V19.953H2.692Z" transform="translate(143.127 28.231)" fill="#c4d6ff"/><path d="M36.157,0H0V81.773H36.157Z" transform="translate(69.822 49.613)" fill="#b9ccf8"/><path d="M62.436,0H0V151.771H62.436Z" transform="translate(22.273 0)" fill="#fff"/><rect width="14.178" height="3.74" transform="translate(84.469 56.595)" fill="#fff"/><rect width="14.178" height="3.74" transform="translate(84.469 125.168)" fill="#fff"/><rect width="14.178" height="3.74" transform="translate(84.469 66.377)" fill="#fff"/><rect width="14.178" height="3.74" transform="translate(84.469 76.159)" fill="#fff"/><rect width="14.178" height="3.74" transform="translate(84.469 85.94)" fill="#fff"/><rect width="14.178" height="3.74" transform="translate(84.469 95.722)" fill="#fff"/><rect width="14.178" height="3.74" transform="translate(84.469 105.503)" fill="#fff"/><rect width="14.178" height="3.74" transform="translate(84.469 115.285)" fill="#fff"/><rect width="9.009" height="3.74" transform="translate(42.419 85.575)" fill="#fff"/><rect width="9.009" height="3.74" transform="translate(55.527 55.779)" fill="#a5c0e6"/><rect width="9.009" height="3.74" transform="translate(55.527 85.575)" fill="#a5c0e6"/><rect width="9.009" height="3.74" transform="translate(55.527 112.106)" fill="#fff"/><rect width="9.009" height="3.74" transform="translate(68.636 55.779)" fill="#fff"/><rect width="9.009" height="3.74" transform="translate(68.636 85.575)" fill="#a5c0e6"/><rect width="9.009" height="3.74" transform="translate(68.636 112.106)" fill="#fff"/><rect width="9.009" height="3.74" transform="translate(55.527 65.647)" fill="#a5c0e6"/><rect width="9.009" height="3.74" transform="translate(55.527 95.444)" fill="#fff"/><rect width="9.009" height="3.74" transform="translate(55.527 121.975)" fill="#fff"/><rect width="9.009" height="3.74" transform="translate(68.636 65.647)" fill="#a5c0e6"/><rect width="9.009" height="3.74" transform="translate(68.636 95.444)" fill="#fff"/><rect width="9.009" height="3.74" transform="translate(68.636 121.975)" fill="#fff"/><rect width="9.009" height="3.74" transform="translate(42.419 75.515)" fill="#fff"/><rect width="9.009" height="3.74" transform="translate(55.527 75.515)" fill="#a5c0e6"/><rect width="9.009" height="3.74" transform="translate(55.527 105.312)" fill="#fff"/><rect width="9.009" height="3.74" transform="translate(55.527 131.843)" fill="#fff"/><rect width="9.009" height="3.74" transform="translate(68.636 75.515)" fill="#a5c0e6"/><rect width="9.009" height="3.74" transform="translate(68.636 105.312)" fill="#fff"/><rect width="9.009" height="3.74" transform="translate(68.636 131.843)" fill="#fff"/><rect width="9.009" height="3.74" transform="translate(141.136 49.873)" fill="#a5c0e6"/><rect width="9.009" height="3.74" transform="translate(122.99 49.873)" fill="#a5c0e6"/><rect width="9.009" height="3.74" transform="translate(68.752 55.587)" fill="#a5c0e6"/><rect width="9.009" height="3.74" transform="translate(141.136 59.395)" fill="#a5c0e6"/><rect width="9.009" height="3.74" transform="translate(122.99 59.395)" fill="#a5c0e6"/><rect width="9.009" height="3.74" transform="translate(141.136 69.263)" fill="#a5c0e6"/><rect width="9.009" height="3.74" transform="translate(122.99 69.263)" fill="#a5c0e6"/><rect width="9.009" height="3.74" transform="translate(141.136 78.958)" fill="#a5c0e6"/><rect width="9.009" height="3.74" transform="translate(122.99 78.958)" fill="#a5c0e6"/><rect width="9.009" height="3.74" transform="translate(29.311 6.391)" fill="#a5c0e6"/><rect width="9.009" height="3.74" transform="translate(29.311 36.187)" fill="#a5c0e6"/><rect width="9.009" height="3.74" transform="translate(29.311 65.983)" fill="#a5c0e6"/><rect width="9.009" height="3.74" transform="translate(42.419 6.391)" fill="#a5c0e6"/><rect width="9.009" height="3.74" transform="translate(42.419 36.187)" fill="#a5c0e6"/><rect width="9.009" height="3.74" transform="translate(55.527 6.391)" fill="#a5c0e6"/><rect width="9.009" height="3.74" transform="translate(68.636 6.391)" fill="#a5c0e6"/><rect width="9.009" height="3.74" transform="translate(29.311 16.259)" fill="#a5c0e6"/><rect width="9.009" height="3.74" transform="translate(29.311 46.055)" fill="#a5c0e6"/><rect width="9.009" height="3.74" transform="translate(29.311 75.851)" fill="#a5c0e6"/><rect width="9.009" height="3.74" transform="translate(29.311 102.382)" fill="#fff"/><rect width="9.009" height="3.74" transform="translate(42.419 16.259)" fill="#a5c0e6"/><rect width="9.009" height="3.74" transform="translate(42.419 46.055)" fill="#a5c0e6"/><rect width="9.009" height="3.74" transform="translate(42.419 55.851)" fill="#a5c0e6"/><rect width="9.009" height="3.74" transform="translate(42.419 65.647)" fill="#a5c0e6"/><rect width="9.009" height="3.74" transform="translate(42.419 75.851)" fill="#a5c0e6"/><rect width="9.009" height="3.74" transform="translate(42.419 102.382)" fill="#fff"/><rect width="9.009" height="3.74" transform="translate(55.527 16.259)" fill="#a5c0e6"/><rect width="9.009" height="3.74" transform="translate(68.636 16.259)" fill="#a5c0e6"/><rect width="9.009" height="3.74" transform="translate(29.311 26.127)" fill="#a5c0e6"/><rect width="9.009" height="3.74" transform="translate(29.311 55.923)" fill="#a5c0e6"/><rect width="9.009" height="3.74" transform="translate(29.311 85.72)" fill="#a5c0e6"/><rect width="9.009" height="3.74" transform="translate(29.311 112.251)" fill="#fff"/><rect width="9.009" height="3.74" transform="translate(42.419 26.127)" fill="#a5c0e6"/><rect width="9.009" height="3.74" transform="translate(42.419 85.72)" fill="#a5c0e6"/><rect width="9.009" height="3.74" transform="translate(42.419 112.251)" fill="#fff"/><rect width="9.009" height="3.74" transform="translate(55.527 26.127)" fill="#a5c0e6"/><rect width="9.009" height="3.74" transform="translate(55.527 35.923)" fill="#a5c0e6"/><rect width="9.009" height="3.74" transform="translate(55.527 45.719)" fill="#a5c0e6"/><rect width="9.009" height="3.74" transform="translate(68.636 26.127)" fill="#a5c0e6"/><rect width="9.009" height="3.74" transform="translate(68.636 35.923)" fill="#a5c0e6"/><rect width="9.009" height="3.74" transform="translate(68.636 45.719)" fill="#a5c0e6"/></g><g transform="translate(5996.547 -1105.203)"><path d="M0,0H48.745V123.191H0Z" transform="translate(22.273 54.02)" fill="#fff"/><path d="M0,0H3.63V27H0Z" transform="translate(32.624 38.195)" fill="#fff"/><path d="M0,0H48.745V110.637H0Z" transform="translate(86.333 67.126)" fill="#b9ccf8"/><path d="M0,0H84.172V205.342H0Z" transform="translate(115.008 0)" fill="#fff"/><rect width="19.114" height="5.059" transform="translate(96.219 76.572)" fill="#fff"/><rect width="19.114" height="5.059" transform="translate(96.219 169.349)" fill="#fff"/><rect width="19.114" height="5.059" transform="translate(96.219 89.807)" fill="#fff"/><rect width="19.114" height="5.059" transform="translate(96.219 103.041)" fill="#fff"/><rect width="19.114" height="5.059" transform="translate(96.219 116.275)" fill="#fff"/><rect width="19.114" height="5.059" transform="translate(96.219 129.509)" fill="#fff"/><rect width="19.114" height="5.059" transform="translate(96.219 142.744)" fill="#fff"/><rect width="19.114" height="5.059" transform="translate(96.219 155.978)" fill="#fff"/><rect width="12.145" height="5.059" transform="translate(159.877 115.782)" fill="#fff"/><rect width="12.145" height="5.059" transform="translate(142.205 75.468)" fill="#a5c0e6"/><rect width="12.145" height="5.059" transform="translate(142.205 115.782)" fill="#a5c0e6"/><rect width="12.145" height="5.059" transform="translate(142.205 151.677)" fill="#a5c0e6"/><rect width="12.145" height="5.059" transform="translate(124.533 75.468)" fill="#fff"/><rect width="12.145" height="5.059" transform="translate(124.533 115.782)" fill="#a5c0e6"/><rect width="12.145" height="5.059" transform="translate(124.533 151.677)" fill="#a5c0e6"/><rect width="12.145" height="5.059" transform="translate(142.205 88.819)" fill="#a5c0e6"/><rect width="12.145" height="5.059" transform="translate(142.205 129.133)" fill="#a5c0e6"/><rect width="12.145" height="5.059" transform="translate(142.205 165.029)" fill="#fff"/><rect width="12.145" height="5.059" transform="translate(124.533 88.819)" fill="#a5c0e6"/><rect width="12.145" height="5.059" transform="translate(124.533 129.133)" fill="#a5c0e6"/><rect width="12.145" height="5.059" transform="translate(124.533 165.029)" fill="#fff"/><rect width="12.145" height="5.059" transform="translate(159.877 102.171)" fill="#fff"/><rect width="12.145" height="5.059" transform="translate(142.205 102.171)" fill="#a5c0e6"/><rect width="12.145" height="5.059" transform="translate(142.205 142.484)" fill="#a5c0e6"/><rect width="12.145" height="5.059" transform="translate(142.205 178.38)" fill="#fff"/><rect width="12.145" height="5.059" transform="translate(124.533 102.171)" fill="#a5c0e6"/><rect width="12.145" height="5.059" transform="translate(124.533 142.484)" fill="#a5c0e6"/><rect width="12.145" height="5.059" transform="translate(124.533 178.38)" fill="#fff"/><rect width="12.145" height="5.059" transform="translate(26.793 67.477)" fill="#a5c0e6"/><rect width="12.145" height="5.059" transform="translate(51.256 67.477)" fill="#a5c0e6"/><rect width="12.145" height="5.059" transform="translate(124.376 75.208)" fill="#a5c0e6"/><rect width="12.145" height="5.059" transform="translate(26.793 80.36)" fill="#a5c0e6"/><rect width="12.145" height="5.059" transform="translate(51.256 80.36)" fill="#a5c0e6"/><rect width="12.145" height="5.059" transform="translate(26.793 93.711)" fill="#a5c0e6"/><rect width="12.145" height="5.059" transform="translate(51.256 93.711)" fill="#a5c0e6"/><rect width="12.145" height="5.059" transform="translate(26.793 106.828)" fill="#a5c0e6"/><rect width="12.145" height="5.059" transform="translate(51.256 106.828)" fill="#a5c0e6"/><rect width="12.145" height="5.059" transform="translate(177.548 8.646)" fill="#a5c0e6"/><rect width="12.145" height="5.059" transform="translate(177.548 48.96)" fill="#a5c0e6"/><rect width="12.145" height="5.059" transform="translate(177.548 89.274)" fill="#a5c0e6"/><rect width="12.145" height="5.059" transform="translate(177.548 125.17)" fill="#a5c0e6"/><rect width="12.145" height="5.059" transform="translate(159.877 8.646)" fill="#a5c0e6"/><rect width="12.145" height="5.059" transform="translate(159.877 48.96)" fill="#a5c0e6"/><rect width="12.145" height="5.059" transform="translate(159.877 125.17)" fill="#a5c0e6"/><rect width="12.145" height="5.059" transform="translate(142.205 8.646)" fill="#a5c0e6"/><rect width="12.145" height="5.059" transform="translate(124.533 8.646)" fill="#a5c0e6"/><rect width="12.145" height="5.059" transform="translate(177.548 21.998)" fill="#a5c0e6"/><rect width="12.145" height="5.059" transform="translate(177.548 62.312)" fill="#a5c0e6"/><rect width="12.145" height="5.059" transform="translate(177.548 102.625)" fill="#a5c0e6"/><rect width="12.145" height="5.059" transform="translate(177.548 138.521)" fill="#a5c0e6"/><rect width="12.145" height="5.059" transform="translate(159.877 21.998)" fill="#a5c0e6"/><rect width="12.145" height="5.059" transform="translate(159.877 62.312)" fill="#a5c0e6"/><rect width="12.145" height="5.059" transform="translate(159.877 75.565)" fill="#a5c0e6"/><rect width="12.145" height="5.059" transform="translate(159.877 88.819)" fill="#a5c0e6"/><rect width="12.145" height="5.059" transform="translate(159.877 102.625)" fill="#a5c0e6"/><rect width="12.145" height="5.059" transform="translate(159.877 138.521)" fill="#a5c0e6"/><rect width="12.145" height="5.059" transform="translate(142.205 21.998)" fill="#a5c0e6"/><rect width="12.145" height="5.059" transform="translate(124.533 21.998)" fill="#a5c0e6"/><rect width="12.145" height="5.059" transform="translate(177.548 35.349)" fill="#a5c0e6"/><rect width="12.145" height="5.059" transform="translate(177.548 75.663)" fill="#a5c0e6"/><rect width="12.145" height="5.059" transform="translate(177.548 115.977)" fill="#a5c0e6"/><rect width="12.145" height="5.059" transform="translate(177.548 151.873)" fill="#a5c0e6"/><rect width="12.145" height="5.059" transform="translate(159.877 35.349)" fill="#a5c0e6"/><rect width="12.145" height="5.059" transform="translate(159.877 115.977)" fill="#a5c0e6"/><rect width="12.145" height="5.059" transform="translate(159.877 151.873)" fill="#a5c0e6"/><rect width="12.145" height="5.059" transform="translate(142.205 35.349)" fill="#a5c0e6"/><rect width="12.145" height="5.059" transform="translate(142.205 48.603)" fill="#a5c0e6"/><rect width="12.145" height="5.059" transform="translate(142.205 61.857)" fill="#a5c0e6"/><rect width="12.145" height="5.059" transform="translate(124.533 35.349)" fill="#a5c0e6"/><rect width="12.145" height="5.059" transform="translate(124.533 48.603)" fill="#a5c0e6"/><rect width="12.145" height="5.059" transform="translate(124.533 61.857)" fill="#a5c0e6"/></g><g transform="translate(4609.547 -1090.066)"><path d="M0,0H61.769V156.1H0Z" transform="translate(22.273 68.453)" fill="#c4d6ff"/><path d="M0,0H4.6V34.209H0Z" transform="translate(35.39 48.401)" fill="#c4d6ff"/><path d="M0,0H61.769V140.2H0Z" transform="translate(103.449 85.06)" fill="#b9ccf8"/><path d="M0,0H106.661V260.206H0Z" transform="translate(139.785 0)" fill="#fff"/><rect width="24.22" height="6.411" transform="translate(115.976 97.031)" fill="#fff"/><rect width="24.22" height="6.411" transform="translate(115.976 214.596)" fill="#fff"/><rect width="24.22" height="6.411" transform="translate(115.976 113.801)" fill="#fff"/><rect width="24.22" height="6.411" transform="translate(115.976 130.571)" fill="#fff"/><rect width="24.22" height="6.411" transform="translate(115.976 147.342)" fill="#fff"/><rect width="24.22" height="6.411" transform="translate(115.976 164.112)" fill="#fff"/><rect width="24.22" height="6.411" transform="translate(115.976 180.882)" fill="#fff"/><rect width="24.22" height="6.411" transform="translate(115.976 197.652)" fill="#fff"/><rect width="15.39" height="6.411" transform="translate(196.642 146.716)" fill="#fff"/><rect width="15.39" height="6.411" transform="translate(174.248 95.631)" fill="#a5c0e6"/><rect width="15.39" height="6.411" transform="translate(174.248 146.716)" fill="#a5c0e6"/><rect width="15.39" height="6.411" transform="translate(174.248 192.203)" fill="#fff"/><rect width="15.39" height="6.411" transform="translate(151.855 95.631)" fill="#fff"/><rect width="15.39" height="6.411" transform="translate(151.855 146.716)" fill="#a5c0e6"/><rect width="15.39" height="6.411" transform="translate(151.855 192.203)" fill="#fff"/><rect width="15.39" height="6.411" transform="translate(174.248 112.55)" fill="#a5c0e6"/><rect width="15.39" height="6.411" transform="translate(174.248 163.635)" fill="#fff"/><rect width="15.39" height="6.411" transform="translate(174.248 209.121)" fill="#fff"/><rect width="15.39" height="6.411" transform="translate(151.855 112.55)" fill="#a5c0e6"/><rect width="15.39" height="6.411" transform="translate(151.855 163.635)" fill="#fff"/><rect width="15.39" height="6.411" transform="translate(151.855 209.121)" fill="#fff"/><rect width="15.39" height="6.411" transform="translate(196.642 129.469)" fill="#fff"/><rect width="15.39" height="6.411" transform="translate(174.248 129.469)" fill="#a5c0e6"/><rect width="15.39" height="6.411" transform="translate(174.248 180.554)" fill="#fff"/><rect width="15.39" height="6.411" transform="translate(174.248 226.04)" fill="#fff"/><rect width="15.39" height="6.411" transform="translate(151.855 129.469)" fill="#a5c0e6"/><rect width="15.39" height="6.411" transform="translate(151.855 180.554)" fill="#fff"/><rect width="15.39" height="6.411" transform="translate(151.855 226.04)" fill="#fff"/><rect width="15.39" height="6.411" transform="translate(28 85.505)" fill="#a5c0e6"/><rect width="15.39" height="6.411" transform="translate(59 85.505)" fill="#a5c0e6"/><rect width="15.39" height="6.411" transform="translate(151.656 95.302)" fill="#a5c0e6"/><rect width="15.39" height="6.411" transform="translate(28 101.83)" fill="#a5c0e6"/><rect width="15.39" height="6.411" transform="translate(59 101.83)" fill="#a5c0e6"/><rect width="15.39" height="6.411" transform="translate(28 118.749)" fill="#a5c0e6"/><rect width="15.39" height="6.411" transform="translate(59 118.749)" fill="#a5c0e6"/><rect width="15.39" height="6.411" transform="translate(28 135.371)" fill="#a5c0e6"/><rect width="15.39" height="6.411" transform="translate(59 135.371)" fill="#a5c0e6"/><rect width="15.39" height="6.411" transform="translate(219.035 10.956)" fill="#a5c0e6"/><rect width="15.39" height="6.411" transform="translate(219.035 62.041)" fill="#a5c0e6"/><rect width="15.39" height="6.411" transform="translate(219.035 113.126)" fill="#a5c0e6"/><rect width="15.39" height="6.411" transform="translate(219.035 158.613)" fill="#a5c0e6"/><rect width="15.39" height="6.411" transform="translate(196.642 10.956)" fill="#a5c0e6"/><rect width="15.39" height="6.411" transform="translate(196.642 62.041)" fill="#a5c0e6"/><rect width="15.39" height="6.411" transform="translate(196.642 158.613)" fill="#a5c0e6"/><rect width="15.39" height="6.411" transform="translate(174.248 10.956)" fill="#a5c0e6"/><rect width="15.39" height="6.411" transform="translate(151.855 10.956)" fill="#a5c0e6"/><rect width="15.39" height="6.411" transform="translate(219.035 27.875)" fill="#a5c0e6"/><rect width="15.39" height="6.411" transform="translate(219.035 78.96)" fill="#a5c0e6"/><rect width="15.39" height="6.411" transform="translate(219.035 130.045)" fill="#a5c0e6"/><rect width="15.39" height="6.411" transform="translate(219.035 175.531)" fill="#a5c0e6"/><rect width="15.39" height="6.411" transform="translate(196.642 27.875)" fill="#a5c0e6"/><rect width="15.39" height="6.411" transform="translate(196.642 78.96)" fill="#a5c0e6"/><rect width="15.39" height="6.411" transform="translate(196.642 95.755)" fill="#a5c0e6"/><rect width="15.39" height="6.411" transform="translate(196.642 112.55)" fill="#a5c0e6"/><rect width="15.39" height="6.411" transform="translate(196.642 130.045)" fill="#a5c0e6"/><rect width="15.39" height="6.411" transform="translate(196.642 175.531)" fill="#a5c0e6"/><rect width="15.39" height="6.411" transform="translate(174.248 27.875)" fill="#a5c0e6"/><rect width="15.39" height="6.411" transform="translate(151.855 27.875)" fill="#a5c0e6"/><rect width="15.39" height="6.411" transform="translate(219.035 44.794)" fill="#a5c0e6"/><rect width="15.39" height="6.411" transform="translate(219.035 95.879)" fill="#a5c0e6"/><rect width="15.39" height="6.411" transform="translate(219.035 146.964)" fill="#a5c0e6"/><rect width="15.39" height="6.411" transform="translate(219.035 192.45)" fill="#a5c0e6"/><rect width="15.39" height="6.411" transform="translate(196.642 44.794)" fill="#a5c0e6"/><rect width="15.39" height="6.411" transform="translate(196.642 146.964)" fill="#a5c0e6"/><rect width="15.39" height="6.411" transform="translate(196.642 192.45)" fill="#a5c0e6"/><rect width="15.39" height="6.411" transform="translate(174.248 44.794)" fill="#a5c0e6"/><rect width="15.39" height="6.411" transform="translate(174.248 61.589)" fill="#a5c0e6"/><rect width="15.39" height="6.411" transform="translate(174.248 78.384)" fill="#a5c0e6"/><rect width="15.39" height="6.411" transform="translate(151.855 44.794)" fill="#a5c0e6"/><rect width="15.39" height="6.411" transform="translate(151.855 61.589)" fill="#a5c0e6"/><rect width="15.39" height="6.411" transform="translate(151.855 78.384)" fill="#a5c0e6"/></g><g transform="translate(4891.72 -996.908)"><path d="M41.678,0H0V104.954H41.678Z" transform="translate(131.855 46.023)" fill="#c4d6ff"/><path d="M3.1,0H0V23H3.1Z" transform="translate(161.58 32.541)" fill="#c4d6ff"/><path d="M41.678,0H0V94.259H41.678Z" transform="translate(77.082 57.189)" fill="#b9ccf8"/><path d="M71.969,0H0V174.944H71.969Z" transform="translate(22.273 0)" fill="#fff"/><rect width="16.343" height="4.31" transform="translate(93.965 65.237)" fill="#fff"/><rect width="16.343" height="4.31" transform="translate(93.965 144.279)" fill="#fff"/><rect width="16.343" height="4.31" transform="translate(93.965 76.512)" fill="#fff"/><rect width="16.343" height="4.31" transform="translate(93.965 87.787)" fill="#fff"/><rect width="16.343" height="4.31" transform="translate(93.965 99.062)" fill="#fff"/><rect width="16.343" height="4.31" transform="translate(93.965 110.337)" fill="#fff"/><rect width="16.343" height="4.31" transform="translate(93.965 121.613)" fill="#fff"/><rect width="16.343" height="4.31" transform="translate(93.965 132.888)" fill="#fff"/><rect width="10.384" height="4.31" transform="translate(45.495 98.642)" fill="#fff"/><rect width="10.384" height="4.31" transform="translate(60.605 64.296)" fill="#a5c0e6"/><rect width="10.384" height="4.31" transform="translate(60.605 98.642)" fill="#a5c0e6"/><rect width="10.384" height="4.31" transform="translate(60.605 129.224)" fill="#fff"/><rect width="10.384" height="4.31" transform="translate(75.715 64.296)" fill="#fff"/><rect width="10.384" height="4.31" transform="translate(75.715 98.642)" fill="#a5c0e6"/><rect width="10.384" height="4.31" transform="translate(75.715 129.224)" fill="#fff"/><rect width="10.384" height="4.31" transform="translate(60.605 75.671)" fill="#a5c0e6"/><rect width="10.384" height="4.31" transform="translate(60.605 110.017)" fill="#fff"/><rect width="10.384" height="4.31" transform="translate(60.605 140.599)" fill="#fff"/><rect width="10.384" height="4.31" transform="translate(75.715 75.671)" fill="#a5c0e6"/><rect width="10.384" height="4.31" transform="translate(75.715 110.017)" fill="#fff"/><rect width="10.384" height="4.31" transform="translate(75.715 140.599)" fill="#fff"/><rect width="10.384" height="4.31" transform="translate(45.495 87.046)" fill="#fff"/><rect width="10.384" height="4.31" transform="translate(60.605 87.046)" fill="#a5c0e6"/><rect width="10.384" height="4.31" transform="translate(60.605 121.392)" fill="#fff"/><rect width="10.384" height="4.31" transform="translate(60.605 151.974)" fill="#fff"/><rect width="10.384" height="4.31" transform="translate(75.715 87.046)" fill="#a5c0e6"/><rect width="10.384" height="4.31" transform="translate(75.715 121.392)" fill="#fff"/><rect width="10.384" height="4.31" transform="translate(75.715 151.974)" fill="#fff"/><rect width="10.384" height="4.31" transform="translate(159.285 57.488)" fill="#a5c0e6"/><rect width="10.384" height="4.31" transform="translate(138.368 57.488)" fill="#a5c0e6"/><rect width="10.384" height="4.31" transform="translate(75.849 64.075)" fill="#a5c0e6"/><rect width="10.384" height="4.31" transform="translate(159.285 68.464)" fill="#a5c0e6"/><rect width="10.384" height="4.31" transform="translate(138.368 68.464)" fill="#a5c0e6"/><rect width="10.384" height="4.31" transform="translate(159.285 79.839)" fill="#a5c0e6"/><rect width="10.384" height="4.31" transform="translate(138.368 79.839)" fill="#a5c0e6"/><rect width="10.384" height="4.31" transform="translate(159.285 91.014)" fill="#a5c0e6"/><rect width="10.384" height="4.31" transform="translate(138.368 91.014)" fill="#a5c0e6"/><rect width="10.384" height="4.31" transform="translate(30.385 7.366)" fill="#a5c0e6"/><rect width="10.384" height="4.31" transform="translate(30.385 41.712)" fill="#a5c0e6"/><rect width="10.384" height="4.31" transform="translate(30.385 76.058)" fill="#a5c0e6"/><rect width="10.384" height="4.31" transform="translate(45.495 7.366)" fill="#a5c0e6"/><rect width="10.384" height="4.31" transform="translate(45.495 41.712)" fill="#a5c0e6"/><rect width="10.384" height="4.31" transform="translate(60.605 7.366)" fill="#a5c0e6"/><rect width="10.384" height="4.31" transform="translate(75.715 7.366)" fill="#a5c0e6"/><rect width="10.384" height="4.31" transform="translate(30.385 18.741)" fill="#a5c0e6"/><rect width="10.384" height="4.31" transform="translate(30.385 53.087)" fill="#a5c0e6"/><rect width="10.384" height="4.31" transform="translate(30.385 87.433)" fill="#a5c0e6"/><rect width="10.384" height="4.31" transform="translate(30.385 118.015)" fill="#fff"/><rect width="10.384" height="4.31" transform="translate(45.495 18.741)" fill="#a5c0e6"/><rect width="10.384" height="4.31" transform="translate(45.495 53.087)" fill="#a5c0e6"/><rect width="10.384" height="4.31" transform="translate(45.495 64.379)" fill="#a5c0e6"/><rect width="10.384" height="4.31" transform="translate(45.495 75.671)" fill="#a5c0e6"/><rect width="10.384" height="4.31" transform="translate(45.495 87.433)" fill="#a5c0e6"/><rect width="10.384" height="4.31" transform="translate(45.495 118.015)" fill="#fff"/><rect width="10.384" height="4.31" transform="translate(60.605 18.741)" fill="#a5c0e6"/><rect width="10.384" height="4.31" transform="translate(75.715 18.741)" fill="#a5c0e6"/><rect width="10.384" height="4.31" transform="translate(30.385 30.116)" fill="#a5c0e6"/><rect width="10.384" height="4.31" transform="translate(30.385 64.462)" fill="#a5c0e6"/><rect width="10.384" height="4.31" transform="translate(30.385 98.808)" fill="#a5c0e6"/><rect width="10.384" height="4.31" transform="translate(30.385 129.39)" fill="#fff"/><rect width="10.384" height="4.31" transform="translate(45.495 30.116)" fill="#a5c0e6"/><rect width="10.384" height="4.31" transform="translate(45.495 98.808)" fill="#a5c0e6"/><rect width="10.384" height="4.31" transform="translate(45.495 129.39)" fill="#fff"/><rect width="10.384" height="4.31" transform="translate(60.605 30.116)" fill="#a5c0e6"/><rect width="10.384" height="4.31" transform="translate(60.605 41.408)" fill="#a5c0e6"/><rect width="10.384" height="4.31" transform="translate(60.605 52.7)" fill="#a5c0e6"/><rect width="10.384" height="4.31" transform="translate(75.715 30.116)" fill="#a5c0e6"/><rect width="10.384" height="4.31" transform="translate(75.715 41.408)" fill="#a5c0e6"/><rect width="10.384" height="4.31" transform="translate(75.715 52.7)" fill="#a5c0e6"/></g><g transform="translate(4401.967 -1049.275)"><path d="M0,0H52.56V189.748H0Z" transform="translate(22.273 58.248)" fill="#c4d6ff"/><path d="M0,0H3.914V29.109H0Z" transform="translate(33.434 41.185)" fill="#c4d6ff"/><path d="M0,0H52.56V119.3H0Z" transform="translate(91.347 72.379)" fill="#b9ccf8"/><path d="M0,0H90.76V221.414H0Z" transform="translate(122.267 0)" fill="#fff"/><rect width="20.61" height="5.455" transform="translate(102.007 82.565)" fill="#fff"/><rect width="20.61" height="5.455" transform="translate(102.007 182.604)" fill="#fff"/><rect width="20.61" height="5.455" transform="translate(102.007 96.836)" fill="#fff"/><rect width="20.61" height="5.455" transform="translate(102.007 111.106)" fill="#fff"/><rect width="20.61" height="5.455" transform="translate(102.007 125.376)" fill="#fff"/><rect width="20.61" height="5.455" transform="translate(102.007 139.646)" fill="#fff"/><rect width="20.61" height="5.455" transform="translate(102.007 153.916)" fill="#fff"/><rect width="20.61" height="5.455" transform="translate(102.007 168.186)" fill="#fff"/><rect width="13.095" height="5.455" transform="translate(170.647 124.844)" fill="#fff"/><rect width="13.095" height="5.455" transform="translate(151.592 81.375)" fill="#a5c0e6"/><rect width="13.095" height="5.455" transform="translate(151.592 124.844)" fill="#a5c0e6"/><rect width="13.095" height="5.455" transform="translate(151.592 163.549)" fill="#fff"/><rect width="13.095" height="5.455" transform="translate(132.537 81.375)" fill="#fff"/><rect width="13.095" height="5.455" transform="translate(132.537 124.844)" fill="#a5c0e6"/><rect width="13.095" height="5.455" transform="translate(132.537 163.549)" fill="#fff"/><rect width="13.095" height="5.455" transform="translate(151.592 95.771)" fill="#a5c0e6"/><rect width="13.095" height="5.455" transform="translate(151.592 139.24)" fill="#fff"/><rect width="13.095" height="5.455" transform="translate(151.592 177.945)" fill="#fff"/><rect width="13.095" height="5.455" transform="translate(132.537 95.771)" fill="#a5c0e6"/><rect width="13.095" height="5.455" transform="translate(132.537 139.24)" fill="#fff"/><rect width="13.095" height="5.455" transform="translate(132.537 177.945)" fill="#fff"/><rect width="13.095" height="5.455" transform="translate(170.647 110.167)" fill="#fff"/><rect width="13.095" height="5.455" transform="translate(151.592 110.167)" fill="#a5c0e6"/><rect width="13.095" height="5.455" transform="translate(151.592 153.637)" fill="#fff"/><rect width="13.095" height="5.455" transform="translate(151.592 192.342)" fill="#fff"/><rect width="13.095" height="5.455" transform="translate(132.537 110.167)" fill="#a5c0e6"/><rect width="13.095" height="5.455" transform="translate(132.537 153.637)" fill="#fff"/><rect width="13.095" height="5.455" transform="translate(132.537 192.342)" fill="#fff"/><rect width="13.095" height="5.455" transform="translate(27.146 72.758)" fill="#a5c0e6"/><rect width="13.095" height="5.455" transform="translate(53.525 72.758)" fill="#a5c0e6"/><rect width="13.095" height="5.455" transform="translate(132.368 81.095)" fill="#a5c0e6"/><rect width="13.095" height="5.455" transform="translate(27.146 86.649)" fill="#a5c0e6"/><rect width="13.095" height="5.455" transform="translate(53.525 86.649)" fill="#a5c0e6"/><rect width="13.095" height="5.455" transform="translate(27.146 101.046)" fill="#a5c0e6"/><rect width="13.095" height="5.455" transform="translate(53.525 101.046)" fill="#a5c0e6"/><rect width="13.095" height="5.455" transform="translate(27.146 115.19)" fill="#a5c0e6"/><rect width="13.095" height="5.455" transform="translate(53.525 115.19)" fill="#a5c0e6"/><rect width="13.095" height="5.455" transform="translate(189.702 9.323)" fill="#a5c0e6"/><rect width="13.095" height="5.455" transform="translate(189.702 52.792)" fill="#a5c0e6"/><rect width="13.095" height="5.455" transform="translate(189.702 96.261)" fill="#a5c0e6"/><rect width="13.095" height="5.455" transform="translate(189.702 134.967)" fill="#a5c0e6"/><rect width="13.095" height="5.455" transform="translate(170.647 9.323)" fill="#a5c0e6"/><rect width="13.095" height="5.455" transform="translate(170.647 52.792)" fill="#a5c0e6"/><rect width="13.095" height="5.455" transform="translate(170.647 134.967)" fill="#a5c0e6"/><rect width="13.095" height="5.455" transform="translate(151.592 9.323)" fill="#a5c0e6"/><rect width="13.095" height="5.455" transform="translate(132.537 9.323)" fill="#a5c0e6"/><rect width="13.095" height="5.455" transform="translate(189.702 23.72)" fill="#a5c0e6"/><rect width="13.095" height="5.455" transform="translate(189.702 67.189)" fill="#a5c0e6"/><rect width="13.095" height="5.455" transform="translate(189.702 110.658)" fill="#a5c0e6"/><rect width="13.095" height="5.455" transform="translate(189.702 149.363)" fill="#a5c0e6"/><rect width="13.095" height="5.455" transform="translate(170.647 23.72)" fill="#a5c0e6"/><rect width="13.095" height="5.455" transform="translate(170.647 67.189)" fill="#a5c0e6"/><rect width="13.095" height="5.455" transform="translate(170.647 81.48)" fill="#a5c0e6"/><rect width="13.095" height="5.455" transform="translate(170.647 95.771)" fill="#a5c0e6"/><rect width="13.095" height="5.455" transform="translate(170.647 110.658)" fill="#a5c0e6"/><rect width="13.095" height="5.455" transform="translate(170.647 149.363)" fill="#a5c0e6"/><rect width="13.095" height="5.455" transform="translate(151.592 23.72)" fill="#a5c0e6"/><rect width="13.095" height="5.455" transform="translate(132.537 23.72)" fill="#a5c0e6"/><rect width="13.095" height="5.455" transform="translate(189.702 38.116)" fill="#a5c0e6"/><rect width="13.095" height="5.455" transform="translate(189.702 81.585)" fill="#a5c0e6"/><rect width="13.095" height="5.455" transform="translate(189.702 125.054)" fill="#a5c0e6"/><rect width="13.095" height="5.455" transform="translate(189.702 163.76)" fill="#a5c0e6"/><rect width="13.095" height="5.455" transform="translate(170.647 38.116)" fill="#a5c0e6"/><rect width="13.095" height="5.455" transform="translate(170.647 125.054)" fill="#a5c0e6"/><rect width="13.095" height="5.455" transform="translate(170.647 163.76)" fill="#a5c0e6"/><rect width="13.095" height="5.455" transform="translate(151.592 38.116)" fill="#a5c0e6"/><rect width="13.095" height="5.455" transform="translate(151.592 52.407)" fill="#a5c0e6"/><rect width="13.095" height="5.455" transform="translate(151.592 66.698)" fill="#a5c0e6"/><rect width="13.095" height="5.455" transform="translate(132.537 38.116)" fill="#a5c0e6"/><rect width="13.095" height="5.455" transform="translate(132.537 52.407)" fill="#a5c0e6"/><rect width="13.095" height="5.455" transform="translate(132.537 66.698)" fill="#a5c0e6"/></g><g transform="translate(4268 -1001.575)"><g transform="translate(165.011 52.974)" opacity="0.7"><path d="M375.471,208.336H222.09l1.062-71.844,43.865-7.261h62.016l45.375,5.143Z" transform="translate(-222.09 -129.23)" fill="url(#a)"/></g><g transform="translate(529.905 67.269)" opacity="0.7"><path d="M375.471,208.336H222.09l1.062-71.844,43.865-7.261h62.016l45.375,5.143Z" transform="translate(-222.09 -129.23)" fill="url(#a)"/></g><path d="M375.3,208.264H226.17l1.062-70.033,41.882-7.261h62.631l42.5,5.143Z" transform="translate(-59.035 -77.09)" fill="#eee"/><path d="M375.3,208.264H226.17l1.062-70.033,41.882-7.261h62.631l42.5,5.143Z" transform="translate(305.859 -62.796)" fill="#eee"/><g transform="translate(213.114 27.26)" opacity="0.7"><rect width="11.191" height="22.086" transform="translate(0)" fill="url(#c)"/></g><g transform="translate(578.008 41.554)" opacity="0.7"><rect width="11.191" height="22.086" transform="translate(0)" fill="url(#c)"/></g><g transform="translate(156.24 53.578)" opacity="0.7"><path d="M262.108,154.262V130.39H213.5l-8.256,23.872v2.447h57.175v-2.447Z" transform="translate(-205.24 -130.39)" fill="url(#a)"/></g><g transform="translate(521.134 67.872)" opacity="0.7"><path d="M262.108,154.262V130.39H213.5l-8.256,23.872v2.447h57.175v-2.447Z" transform="translate(-205.24 -130.39)" fill="url(#a)"/></g><path d="M262.67,154.566H206.4l8.167-23.6h48.1Z" transform="translate(-49.556 -77.09)" fill="#2566c1"/><path d="M262.67,154.566H206.4l8.167-23.6h48.1Z" transform="translate(315.338 -62.796)" fill="#2566c1"/><rect width="56.572" height="2.42" transform="translate(156.844 77.475)" fill="#1b5ab4"/><rect width="56.572" height="2.42" transform="translate(521.738 91.77)" fill="#1b5ab4"/><g transform="translate(268.774 53.276)" opacity="0.7"><path d="M470.48,129.81H421.737v24.142h-.307v2.478h57.332v-2.478Z" transform="translate(-421.43 -129.81)" fill="url(#a)"/></g><g transform="translate(633.668 67.57)" opacity="0.7"><path d="M470.48,129.81H421.737v24.142h-.307v2.478h57.332v-2.478Z" transform="translate(-421.43 -129.81)" fill="url(#a)"/></g><path d="M422.01,154.566h56.27l-8.167-23.6h-48.1Z" transform="translate(-152.934 -77.09)" fill="#2566c1"/><path d="M422.01,154.566h56.27l-8.167-23.6h-48.1Z" transform="translate(211.96 -62.796)" fill="#2566c1"/><path d="M0,0H56.572V2.42H0Z" transform="translate(325.346 79.896) rotate(180)" fill="#1b5ab4"/><rect width="56.572" height="2.42" transform="translate(690.24 94.191) rotate(180)" fill="#1b5ab4"/><rect width="30.555" height="19.057" transform="translate(171.971 89.427)" fill="#a5c0e6" opacity="0.2"/><rect width="30.555" height="19.057" transform="translate(536.865 103.722)" fill="#6274cb" opacity="0.2"/><rect width="34.183" height="3.326" transform="translate(170.154 107.125)" opacity="0.1"/><rect width="34.183" height="3.326" transform="translate(535.048 121.42)" opacity="0.1"/><rect width="34.183" height="3.326" transform="translate(170.154 106.823)" fill="#85a7e2"/><rect width="34.183" height="3.326" transform="translate(535.048 121.118)" fill="#85a7e2"/><g transform="translate(171.971 89.427)" opacity="0.1"><rect width="30.555" height="7.563" fill="#255dbf"/></g><g transform="translate(536.865 103.722)" opacity="0.1"><rect width="30.555" height="7.563" transform="translate(0)" fill="#255ebf"/></g><rect width="30.555" height="19.057" transform="translate(279.971 89.427)" fill="#a5c0e6" opacity="0.2"/><rect width="30.555" height="19.057" transform="translate(644.865 103.722)" fill="#6274cb" opacity="0.2"/><rect width="34.183" height="3.326" transform="translate(278.154 107.125)" opacity="0.1"/><rect width="34.183" height="3.326" transform="translate(643.048 121.42)" opacity="0.1"/><rect width="34.183" height="3.326" transform="translate(278.154 106.823)" fill="#85a7e2"/><rect width="34.183" height="3.326" transform="translate(643.048 121.118)" fill="#85a7e2"/><g transform="translate(279.971 89.427)" opacity="0.1"><rect width="30.555" height="7.563" transform="translate(0)" fill="#255dbf"/></g><g transform="translate(644.865 103.722)" opacity="0.1"><rect width="30.555" height="7.563" fill="#255ebf"/></g><g transform="translate(202.245 20.67)" opacity="0.7"><path d="M369.883,101.8,332.566,72.938l-36.115,28.838L293.62,98.23l38.9-31.06,40.133,31.039Z" transform="translate(-293.62 -67.17)" fill="url(#a)"/></g><g transform="translate(567.139 34.964)" opacity="0.7"><path d="M369.883,101.8,332.566,72.938l-36.115,28.838L293.62,98.23l38.9-31.06,40.133,31.039Z" transform="translate(-293.62 -67.17)" fill="url(#a)"/></g><rect width="40.237" height="0.453" transform="translate(167.884 79.896)" opacity="0.1"/><rect width="40.237" height="0.453" transform="translate(532.779 94.191)" fill="#2566c1" opacity="0.1"/><rect width="40.69" height="0.453" transform="translate(274.828 79.896)" fill="#e6bf66" opacity="0.1"/><rect width="40.69" height="0.453" transform="translate(639.722 94.191)" fill="#2566c1" opacity="0.1"/><g transform="translate(207.065 47.529)" opacity="0.7"><path d="M370.643,202.415H302.88v-82.89l34.173-.755,33.59.755Z" transform="translate(-302.88 -118.77)" fill="url(#a)"/></g><g transform="translate(571.959 61.824)" opacity="0.7"><path d="M370.643,202.415H302.88v-82.89l34.173-.755,33.59.755Z" transform="translate(-302.88 -118.77)" fill="url(#a)"/></g><path d="M370.856,181.515H304.91V98.625L337.886,75.18l32.971,23.445Z" transform="translate(-96.788 -50.341)" fill="#fff"/><path d="M370.856,181.515H304.91V98.625L337.886,75.18l32.971,23.445Z" transform="translate(268.106 -36.046)" fill="#fff"/><rect width="16.636" height="27.833" transform="translate(232.774 103.341)" fill="#2566c1"/><rect width="16.636" height="27.833" transform="translate(597.668 117.635)" fill="#2566c1"/><rect width="34.183" height="3.326" transform="translate(224.003 78.386)" opacity="0.1"/><rect width="34.183" height="3.326" transform="translate(588.897 92.681)" opacity="0.1"/><rect width="30.555" height="19.057" transform="translate(225.82 60.688)" fill="#a5c0e6" opacity="0.2"/><rect width="30.555" height="19.057" transform="translate(590.714 74.983)" fill="#6274cb" opacity="0.2"/><rect width="34.183" height="3.326" transform="translate(224.003 78.084)" fill="#85a7e2"/><rect width="34.183" height="3.326" transform="translate(588.897 92.379)" fill="#85a7e2"/><g transform="translate(225.82 60.688)" opacity="0.1"><rect width="30.555" height="7.563" transform="translate(0)" fill="#255dbf"/></g><g transform="translate(590.714 74.983)" opacity="0.1"><rect width="30.555" height="7.563" transform="translate(0)" fill="#255ebf"/></g><path d="M369.883,102.376,332.566,73.518l-36.115,28.838L293.62,98.81l38.9-31.06,40.133,31.039Z" transform="translate(-91.375 -46.779)" fill="#2566c1"/><path d="M369.883,102.376,332.566,73.518l-36.115,28.838L293.62,98.81l38.9-31.06,40.133,31.039Z" transform="translate(273.519 -32.484)" fill="#2566c1"/><circle cx="1.208" cy="1.208" r="1.208" transform="translate(245.787 116.052)" fill="#e0e0e0"/><circle cx="1.208" cy="1.208" r="1.208" transform="translate(610.682 130.347)" fill="#e0e0e0"/><g transform="translate(445.011 87.689)" opacity="0.7"><rect width="68.096" height="59.336" fill="url(#a)"/></g><rect width="66.212" height="58.003" transform="translate(446.177 88.35)" fill="#eee"/><g transform="translate(458.764 70.163)" opacity="0.7"><rect width="8.209" height="16.194" transform="translate(0)" fill="url(#n)"/></g><rect width="7.761" height="15.97" transform="translate(458.988 70.387)" fill="#293b8f"/><g transform="translate(454.329 85.024)" opacity="0.7"><path d="M67.585,224.674H17.9V163.9l25.059-.557,24.626.557Z" transform="translate(-17.9 -163.34)" fill="url(#o)"/></g><path d="M67.748,209.351H19.39V148.573L43.569,131.38l24.179,17.193Z" transform="translate(435.714 -62.992)" fill="#fff"/><path d="M0,0H12.2V20.4H0Z" transform="translate(473.183 125.948)" fill="#2566c1"/><path d="M0,0H22.4V13.976H0Z" transform="translate(468.081 94.675)" fill="#5a6ecb" opacity="0.2"/><rect width="25.064" height="2.441" transform="translate(466.749 107.428)" fill="#85a7e2"/><g transform="translate(468.081 94.675)" opacity="0.1"><rect width="22.404" height="5.544" transform="translate(0)" fill="#255dbf"/></g><g transform="translate(450.794 65.332)" opacity="0.7"><path d="M67.026,150.9l-27.359-21.16-26.48,21.144-2.077-2.6L39.635,125.51l29.426,22.758Z" transform="translate(-11.11 -125.51)" fill="url(#a)"/></g><path d="M67.026,151.322l-27.359-21.16-26.48,21.144-2.077-2.6L39.635,125.93l29.426,22.763Z" transform="translate(439.684 -60.379)" fill="#2566c1"/><circle cx="0.885" cy="0.885" r="0.885" transform="translate(482.724 135.271)" fill="#e0e0e0"/><g transform="translate(336.246 42.882)" opacity="0.7"><path d="M740.238,186.044H614.05l.869-94.149,36.089-9.515h51.028l37.333,6.741Z" transform="translate(-614.05 -82.38)" fill="url(#a)"/></g><path d="M740.1,185.955H617.4l.874-91.775,34.459-9.51h51.528l34.964,6.736Z" transform="translate(-279.41 -40.596)" fill="#eee"/><g transform="translate(375.817 2.311)" opacity="0.7"><rect width="9.208" height="18.172" transform="translate(0)" fill="url(#r)"/></g><g transform="translate(329.026 38.65)" opacity="0.7"><path d="M646.971,93.89V74.25h-40L600.18,93.89V95.9h47.041V93.89Z" transform="translate(-600.18 -74.25)" fill="url(#s)"/></g><path d="M647.431,94.146H601.14l6.72-19.416h39.571Z" transform="translate(-271.614 -35.831)" fill="#2566c1"/><rect width="46.546" height="1.994" transform="translate(329.526 58.315)" fill="#1b5ab4"/><g transform="translate(421.613 38.899)" opacity="0.7"><path d="M818.407,74.73h-40.1V94.594h-.255v2.04h47.166v-2.04Z" transform="translate(-778.05 -74.73)" fill="url(#s)"/></g><path d="M778.53,95.1h46.3l-6.72-19.411H778.53Z" transform="translate(-356.667 -36.291)" fill="#2566c1"/><rect width="46.546" height="1.994" transform="translate(468.159 60.804) rotate(180)" fill="#1b5ab4"/><rect width="25.137" height="15.678" transform="translate(341.966 111.451)" fill="#5a6ecb" opacity="0.2"/><rect width="28.124" height="2.738" transform="translate(340.478 126.011)" opacity="0.1"/><rect width="28.124" height="2.738" transform="translate(340.478 125.766)" fill="#85a7e2"/><g transform="translate(341.966 111.451)" opacity="0.1"><rect width="25.137" height="6.22" transform="translate(0)"/></g><rect width="25.137" height="15.678" transform="translate(430.827 111.451)" fill="#5a6ecb" opacity="0.2"/><rect width="28.124" height="2.738" transform="translate(429.333 126.011)" opacity="0.1"/><rect width="28.124" height="2.738" transform="translate(429.333 125.766)" fill="#85a7e2"/><g transform="translate(430.827 111.451)" opacity="0.1"><rect width="25.137" height="6.22" fill="#255dbf"/></g><rect width="25.137" height="15.678" transform="translate(430.827 74.863)" fill="#5a6ecb" opacity="0.2"/><rect width="28.124" height="2.738" transform="translate(429.333 89.428)" opacity="0.1"/><rect width="28.124" height="2.738" transform="translate(429.333 89.178)" fill="#85a7e2"/><g transform="translate(430.827 74.863)" opacity="0.1"><rect width="25.137" height="6.22" fill="#255dbf"/></g><rect width="25.137" height="15.678" transform="translate(342.716 74.863)" fill="#5a6ecb" opacity="0.2"/><rect width="28.124" height="2.738" transform="translate(341.222 89.428)" opacity="0.1"/><rect width="28.124" height="2.738" transform="translate(341.222 89.178)" fill="#85a7e2"/><g transform="translate(342.716 74.863)" opacity="0.1"><rect width="25.137" height="6.22" fill="#255dbf"/></g><g transform="translate(366.874)" opacity="0.7"><path d="M735.635,28.489l-30.7-23.742L675.222,28.473l-2.332-2.915L704.9,0,737.92,25.537Z" transform="translate(-672.89)" fill="url(#a)"/></g><rect width="33.101" height="0.375" transform="translate(338.609 60.304)" opacity="0.1"/><rect width="33.476" height="0.375" transform="translate(426.595 60.804)" opacity="0.1"/><g transform="translate(370.965 24.215)" opacity="0.7"><path d="M736.5,168.106H680.75V47.618l28.119-1.1,27.635,1.1Z" transform="translate(-680.75 -46.52)" fill="url(#a)"/></g><path d="M736.44,149.882H682.18V28.915l27.13-20.4,27.63,21.154Z" transform="translate(-310.47 -4.08)" fill="#fff"/><rect width="13.69" height="22.898" transform="translate(391.995 122.903)" fill="#f57474"/><rect width="28.124" height="2.738" transform="translate(384.78 102.368)" opacity="0.1"/><path d="M0,0H25.137V15.678H0Z" transform="translate(386.274 87.809)" fill="#8a93be" opacity="0.2"/><rect width="28.124" height="2.738" transform="translate(384.78 102.118)" fill="#85a7e2"/><g transform="translate(386.274 87.809)" opacity="0.1"><rect width="25.137" height="6.22"/></g><path d="M0,0H25.137V15.678H0Z" transform="translate(386.274 57.071)" fill="#293b8f" opacity="0.2"/><rect width="28.124" height="2.738" transform="translate(384.78 71.381)" fill="#85a7e2"/><g transform="translate(386.274 57.071)" opacity="0.1"><rect width="25.137" height="6.22" fill="#255dbf"/></g><path d="M0,0H25.137V15.678H0Z" transform="translate(386.274 26.329)" fill="#293b8f" opacity="0.2"/><rect width="28.124" height="2.738" transform="translate(384.78 40.643)" fill="#85a7e2"/><g transform="translate(386.274 26.329)" opacity="0.1"><rect width="25.137" height="6.22" fill="#255dbf"/></g><path d="M735.635,30.164l-30.7-23.747L675.222,30.143l-2.332-2.915L704.9,1.67,737.92,27.207Z" transform="translate(-306.016 -0.801)" fill="#2566c1"/><circle cx="0.994" cy="0.994" r="0.994" transform="translate(402.702 133.356)" fill="#e0e0e0"/></g><g transform="translate(4885.71 -2956.899)"><path d="M30.333,0C47.571.1,62.322,15.639,62.422,32.215S47.515,61.8,30.278,61.7.1,48.415,0,31.84,13.1-.1,30.333,0Z" transform="translate(377.86 1901.959) rotate(-60)" opacity="0.5" fill="url(#w)"/><path d="M28.852,0c16.4.1,30.426,14.875,30.522,30.64S45.194,58.782,28.8,58.684.1,46.05,0,30.285,12.456-.1,28.852,0Z" transform="matrix(0.966, -0.259, 0.259, 0.966, 383.913, 1869.695)" fill="url(#w)"/></g><g transform="translate(4465.938 -2928.99)"><path d="M18.8,0C29.487.064,38.63,9.694,38.692,19.968s-9.24,18.339-19.925,18.275A18.484,18.484,0,0,1,0,19.736C-.062,9.462,8.118-.064,18.8,0Z" transform="translate(377.86 1881.408) rotate(-60)" opacity="0.5" fill="url(#w)"/><path d="M17.884,0C28.046.061,36.743,9.22,36.8,18.993S28.014,36.436,17.851,36.375A17.581,17.581,0,0,1,0,18.772C-.059,9,7.721-.061,17.884,0Z" transform="matrix(0.966, -0.259, 0.259, 0.966, 381.612, 1861.409)" fill="url(#w)"/></g><g transform="translate(5544.39 -2958.364)"><path d="M15.574,0C24.424.053,32,8.03,32.05,16.54S24.4,31.731,15.546,31.677A15.31,15.31,0,0,1,0,16.348C-.052,7.837,6.724-.053,15.574,0Z" transform="translate(377.86 1875.655) rotate(-60)" opacity="0.5" fill="url(#w)"/><path d="M14.813,0c8.418.051,15.621,7.637,15.671,15.732s-7.28,14.449-15.7,14.4A14.562,14.562,0,0,1,0,15.549C-.049,7.455,6.4-.05,14.813,0Z" transform="matrix(0.966, -0.259, 0.259, 0.966, 380.968, 1859.09)" fill="url(#w)"/></g><path d="M-.179,1097.737h1920V959.814s-477.927-120.22-978.708-17.257S-.179,968.72-.179,968.72Z" transform="translate(4417.425 -1868)" fill="#ebf2ff"/><path d="M1.246,1081.737h1920l-.188-110.863s-522.359-133.859-1009.49-43.4S1.246,971.394,1.246,971.394Z" transform="translate(4416 -1822)" fill="#fff"/><g transform="translate(4406 -1802)"><g transform="translate(-31.144 -2121.722)"><path d="M82.1,0c45.34,0,85.468,6.173,85.468,13.788S127.436,27.576,82.1,27.576,0,21.4,0,13.788,36.755,0,82.1,0Z" transform="translate(991.199 3027.576)" fill="url(#ac)"/><path d="M65.225,6.59c35.64,0,63.794,1.066,63.794,9.339,0,5.154,9.775,8.23-17.794,10.574-16.244,1.381-68.232,3.126-81.669,3.126-35.64,0-29.6-5.427-29.6-13.7S29.585,6.59,65.225,6.59Z" transform="translate(1008.653 3017.295)" fill="#bfeded"/><g transform="translate(1000.044 2862.262)"><path d="M135.4,374.378c-.87-.308-1.718-.612-2.549-.912.779.356,1.553.712,2.338,1.062C135.259,374.482,135.324,374.424,135.4,374.378Z" transform="translate(-66.143 -246.539)" fill="#dedffe"/><path d="M85.076,337.627l.071-.1c-.062-.013-.127-.021-.189-.033C85,337.536,85.036,337.582,85.076,337.627Z" transform="translate(-16.837 -285.475)" fill="#edeffc"/><path d="M178.767,706.529s-10.829,2.62-15.116,7.519a14.579,14.579,0,0,1-5.764,3.663V710.3c2.476-4.16,4.975-8.786,4.975-8.786.113-.228,1.015-3.418,1.015-3.418,2.03-1.595-.113-7.177-.113-7.177s1.241-3.532.564-4.215-.113-2.506.451-3.3a4.126,4.126,0,0,0,.451-2.506c0-.684-.9-1.709-2.369-2.279s.113-1.481,1.015-1.709,1.128-2.392.113-3.532.113-1.823.677-3.076-1.8-1.025-1.8-1.025v-11.5h0s-.677-3.759-1.354-10.369-3.272-7.29-3.272-7.29a29.542,29.542,0,0,1-4.061-1.6,27.787,27.787,0,0,0-4.288-1.593,21.979,21.979,0,0,1-5.526-.765,16.95,16.95,0,0,0-3.773-.817c-.139-.065-.271-.133-.406-.2a14.768,14.768,0,0,1-6.846-7.252c-.07-.157-.133-.311-.2-.465a16.108,16.108,0,0,0,1.8-2.392l.012-.019c0,.116.005.233.005.349,0,.049,0,.1,0,.146,0,.281,0,.562-.012.842l0,0v.025c1.8-3.179,7.019-3.9,7.516-7.533a3.806,3.806,0,0,0,.033-.5v-.023c0-.122-.006-.245-.015-.367-.067-1.013-.414-2.022-.482-3.046a5.937,5.937,0,0,1,.014-.879l0,.016c.233-2.819,2.359-5.269,3.332-8.006a9.8,9.8,0,0,0,.508-2.278l0-.021q.036-.352.048-.707c0-.059,0-.117,0-.176q0-.246,0-.492a10.659,10.659,0,0,0-3.521-7.7c-1.8-1.563-4.175-2.545-5.42-4.585-.581-.952-.867-2.07-1.5-2.987-1.192-1.728-3.385-2.432-5.455-2.682s-4.205-.166-6.188-.818c-1.4-.462-2.68-1.278-4.1-1.689a7.848,7.848,0,0,0-8.429,3.039c-.749,1.092-1.239,2.4-2.247,3.252-2.067,1.746-5.574.988-7.385,3a5.35,5.35,0,0,0-.988,4.157l0,.054q.015.179.033.359c.006.056.011.111.017.167s.013.119.02.178c.064.553.144,1.1.213,1.633.011.081.019.162.028.243.02.165.039.329.055.494.012.12.022.241.032.362q.019.224.033.448c.007.117.015.234.021.352a24.315,24.315,0,0,1-2.587,12.15c-1.706,3.351-4.245,6.435-4.687,10.176a10.787,10.787,0,0,0-.049,1.846c0,.072.005.145.01.217.008.111.02.222.03.332.012.127.023.254.039.381.009.072.02.145.03.217.023.168.048.337.076.5.006.036.013.072.019.108.448,2.55,1.463,5.066,2,7.625a21.126,21.126,0,0,1,.4,2.881v.02q.032.462.044.924c.011.417.005.835-.009,1.252a19.625,19.625,0,0,1-2.629.807c-1.58.229-6.206,4.33-5.868,5.356s-2.071,8.213-2.139,8.424l0,0h0l-3.806,26.2s-2.01,1.937-1.382,3.19-.122,3.418-.122,3.418-3.4,1.481-2.642,2.392.41,2.62-.109,3.759-1.365,3.19,0,3.532.235,4.785.235,4.785,4.761-.546,4.411,2.278c-.112.9,3.33,3.376,4.767,4.366V720.4a41.662,41.662,0,0,1-5.64-1.913c-2.933-1.367-19.4-3.987-23.012,3.873s4.963,18.342,7.107,19.481a14.677,14.677,0,0,1,2.482,2.392c.451.8,3.046,1.025,3.046,1.025a19.135,19.135,0,0,1,3.384,1.937c.5.5,4.622,1.814,9.512,2.833h0s-3.948,9.09,2.493,8.34,9.579-3.92,14.12-3.92c1.815,0,5.185-.253,8.579-.557a22.608,22.608,0,0,1,2.522.595,32.261,32.261,0,0,0,5.866,1.253s5.076,2.734,7.783,2.051a1.776,1.776,0,0,0,.615-.329l.062-.013a3.617,3.617,0,0,0,1.63-1.4c3.388.346,7.246.839,8.7,1.4,2.808,1.084,22.873-.417,22.873-.417s12.964.255,16.68,1.378,2.395-11.469-4.459-12.887a27.944,27.944,0,0,0-5.576-.493,12.248,12.248,0,0,0,1.3-1.575c2.47-.225,4.092-.363,4.092-.363s6.543-3.19,10.265-5.126a23.411,23.411,0,0,0,6.317-5.013s3.271-2.051,4.625-2.848,2.03-3.418,2.03-3.418C204.824,703.453,178.767,706.529,178.767,706.529Zm-29.375-29.153c0-.384,0-.767,0-1.149.361.26.308.668,0,1.149Zm.107,8.057c.273.36.538.688.729.932.729.935-.591,1.39-.5,2.958.021.352.052.839.085,1.382h0c-.139-2.245-.252-4.109-.319-5.271Z" transform="translate(-57.643 -581.636)" fill="url(#ad)"/><path d="M90.781,781.772a66.658,66.658,0,0,1-9.25-2.82C78.6,777.6,62.129,775,58.519,782.787s4.963,18.161,7.107,19.289S88.638,787.75,88.638,787.75l16.469,6.937,3.158-10.773Z" transform="translate(-57.643 -642.021)" fill="#f57474"/><rect width="71.659" height="24.929" rx="12.465" transform="translate(40.102 141.893)" fill="#f87f7f"/><path d="M141.63,805.885a59.584,59.584,0,0,1-13.047,1.763c-5.863-.083-33.293,11.313-33.293,11.313s-3.948,9,2.493,8.258,9.579-3.881,14.12-3.881,18.827-1.569,18.827-1.569l13.748-10.157Z" transform="translate(-68.885 -650.799)" fill="#ffcfc6"/><path d="M154.243,668.713l-12.89,2.542-.836.166s-10.189-2.707-10.528-2.934S120.4,655.8,120.4,655.8a18.661,18.661,0,0,0,8.352-2.068c.132-.074.261-.156.389-.237a8.131,8.131,0,0,0,3.486-4.257c.064-.186.122-.379.176-.579a11.436,11.436,0,0,0-.108-5.55c-1.245-5.259,1.641-6.707,5.489-6.582,5.557.183,13.123,3.651,13.123,3.651a15.405,15.405,0,0,0,1.188,5.144c.061.152.129.3.2.46a14.679,14.679,0,0,0,6.846,7.181c.135.068.267.135.406.2.409.2.843.382,1.293.552C171.051,657.434,154.243,668.713,154.243,668.713Z" transform="translate(-76.999 -598.562)" fill="#ffcfc6"/><path d="M158.045,645.78a16.247,16.247,0,0,1-20.064,3.455,10.92,10.92,0,0,0,.068-6.129c-3.046-12.859,18.612-2.931,18.612-2.931a15.608,15.608,0,0,0,1.384,5.6Z" transform="translate(-82.351 -598.563)" opacity="0.1"/><path d="M158.487,626.147a16.158,16.158,0,0,1-2.46,8.6,15.966,15.966,0,0,1-1.8,2.369,16.167,16.167,0,0,1-11,5.249c-.325.02-.653.03-.981.03a16.244,16.244,0,1,1,16.244-16.244Z" transform="translate(-78.726 -590.354)" fill="#ffcfc6"/><path d="M154.243,676.047l-12.89,2.541-.836.166s-10.189-2.707-10.528-2.934-9.587-12.69-9.587-12.69a18.66,18.66,0,0,0,8.352-2.068c.132-.074.261-.156.389-.237a15.126,15.126,0,0,0,10.995,4.809,15.661,15.661,0,0,0,2.294-.183c1.814-.278,3.641-.457,5.465-.646,3.492-.366,8.836-1.425,11.641-4.511.135.068.267.135.406.2.409.2.843.382,1.293.552C171.051,664.767,154.243,676.047,154.243,676.047Z" transform="translate(-76.999 -605.896)" opacity="0.1"/><path d="M162,709.073c.112,2.484,1.919,30.457,1.919,30.457H107.631l.382-17.611.308-14.088.1-4.623.45-16.017-1.628-1.435-8.863-7.817,0,0c.068-.21,2.474-7.34,2.139-8.342s4.288-5.076,5.868-5.3a19.924,19.924,0,0,0,2.646-.805c2.66-.934,6.21-2.308,6.6-2.095.552.3,6.088-.217,6.321-.24h.007a15.094,15.094,0,0,0,11.377,5.249,15.636,15.636,0,0,0,2.294-.183c1.814-.277,3.641-.457,5.465-.646,3.668-.382,9.374-1.533,12.047-4.988a17.1,17.1,0,0,1,3.773.809,22.2,22.2,0,0,0,5.526.758,27.97,27.97,0,0,1,4.288,1.577,29.721,29.721,0,0,0,4.061,1.58s2.6.677,3.272,7.218,1.354,10.267,1.354,10.267L162,694.41S161.891,706.592,162,709.073Z" transform="translate(-70.208 -605.984)" fill="#ffbfbf"/><path d="M69.476,692l1.972,3.158,7.39,2.6,5.076-9.26-4.68-3.158-7.5-2.932-4.286,2.481Z" transform="translate(-41.302 -569.393)" fill="#fbbebe"/><path d="M189.11,775.531s10.491-.79,14.777-5.64S219,762.446,219,762.446,245.06,759.4,234.8,782.412c0,0-.677,2.594-2.03,3.384s-4.625,2.82-4.625,2.82l-40.038-3.5Z" transform="translate(-97.879 -637.36)" fill="#f57474"/><path d="M200.54,800.68a12.426,12.426,0,0,1-2.074,6.89c-6.734.6-21.651,2-24.771,2.87-3.834,1.063-11.594-.788-12.443-1l-.078-.017s-1.5-4.538-2.21-7.442c-.321-1.32-.484-2.3-.274-2.372.677-.227,6.883-1.919,6.768-.961s18.612-7.276,18.612-7.276l.575,7.221C186.553,800.784,200.54,797.547,200.54,800.68Z" transform="translate(-88.778 -646.323)" opacity="0.1"/><path d="M220.131,794.8l-.79,2.933a23.365,23.365,0,0,1-6.317,4.964c-3.722,1.918-10.265,5.076-10.265,5.076s-24.027,2.031-28.088,3.159-12.521-1.015-12.521-1.015-3.158-9.588-2.482-9.814,6.881-1.918,6.768-.959,18.612-7.276,18.612-7.276Z" transform="translate(-89.08 -646.475)" fill="#f57474"/><path d="M150.412,827.822s11.808.826,14.616,1.9,22.873-.413,22.873-.413,12.964.252,16.68,1.365,2.395-11.356-4.459-12.76-16.515.661-16.515.661-10.9-1.4-12.221-1.569-10.031.08-10.031.08Z" transform="translate(-86.255 -654.211)" fill="#ffcfc6"/><path d="M83.31,787.658s15.607,1.4,19.9,3.964Z" transform="translate(-65.559 -645.177)" opacity="0.1"/><path d="M216.5,772.853s-12.221,2.973-17.01,7.349Z" transform="translate(-101.39 -640.611)" opacity="0.1"/><path d="M84.623,782.524c.248.083,7.184.991,7.019,1.652S84.623,782.524,84.623,782.524Z" transform="translate(-65.964 -643.594)" opacity="0.1"/><path d="M68.86,804.569l.9,3.384a14.619,14.619,0,0,1,2.482,2.369c.451.79,3.046,1.015,3.046,1.015a19.187,19.187,0,0,1,3.384,1.918c.677.677,8.009,2.82,14.89,3.723s19.628,2.594,22.335,3.5a32.572,32.572,0,0,0,5.866,1.241s5.076,2.707,7.783,2.03,7.332-12.972,7.332-12.972-17.823-4.174-18.387-5.527-17.71-7.667-17.71-7.667l-10.152.24Z" transform="translate(-61.103 -648.237)" opacity="0.1"/><path d="M67.881,802.491l.9,3.384a14.615,14.615,0,0,1,2.482,2.369c.451.79,3.046,1.015,3.046,1.015a19.2,19.2,0,0,1,3.384,1.918c.677.677,8.009,2.82,14.89,3.722s19.628,2.595,22.335,3.5a32.524,32.524,0,0,0,5.866,1.241s5.076,2.707,7.783,2.031S135.9,808.7,135.9,808.7s-17.823-4.174-18.387-5.527S91.8,791.549,91.8,791.549l-7.9-1.8Z" transform="translate(-60.801 -645.82)" fill="#f57474"/><path d="M96.43,684.051l-1.972,1.128-3.806,25.945s-2.01,1.918-1.382,3.159-.122,3.384-.122,3.384-3.4,1.466-2.642,2.369.41,2.594-.109,3.723-1.365,3.159,0,3.5.235,4.738.235,4.738,4.761-.541,4.411,2.256c-.141,1.128,5.385,4.738,5.385,4.738s-6.28-11.393,7.787-9.814l1.209-6.423s1.209-3.616,0-4.744.272-6.486.272-6.486l.266-23.294Z" transform="translate(-66.284 -613.223)" fill="#fdb6bb"/><path d="M96.8,732.5c.248.413,7.845,1.255,8.34,2.609S96.8,732.5,96.8,732.5Z" transform="translate(-69.72 -628.164)" opacity="0.1"/><path d="M93.339,740.6s1.03-3.22,3.488-2.642S93.339,740.6,93.339,740.6Z" transform="translate(-68.653 -629.827)" opacity="0.1"/><path d="M91.429,746.839s1.817-4.294,4.294-3.964S91.429,746.839,91.429,746.839Z" transform="translate(-68.063 -631.359)" opacity="0.1"/><path d="M201.117,746.114l-.79,4.738s-8.122,14.89-9.588,15.116-9.475-9.927-9.475-9.927l-2.143-9.927,8.438-1.6,3.745-3.7S200.779,741.714,201.117,746.114Z" transform="translate(-95.109 -630.729)" fill="#ffcfc6"/><path d="M200.052,688.719l3.046,2.143v11.393s2.369-.226,1.8,1.015-1.692,1.918-.677,3.046.79,3.271-.113,3.5-2.482,1.128-1.015,1.692,2.369,1.579,2.369,2.256a4.051,4.051,0,0,1-.451,2.482c-.564.79-1.128,2.594-.451,3.271s-.564,4.174-.564,4.174,2.143,5.527.113,7.107c0,0-.9,3.158-1.015,3.384,0,0,1.422-10.982-12.769-6.337,0,0-.264-4.185-.36-5.737s1.224-2,.5-2.929-2.554-3.046-1.692-3.61.564-1.579.226-2.369-1.533-.789-.452-1.748,1.719-1.859,1.086-2.311-1.736-1.922-.859-2.6.9-10.491.9-10.491S193.284,681.613,200.052,688.719Z" transform="translate(-97.879 -614.056)" fill="#fdb6bb"/><path d="M203.306,717.427s4.337-1.176,4.481,0S203.306,717.427,203.306,717.427Z" transform="translate(-102.568 -623.355)" opacity="0.1"/><path d="M196.262,722s5.945-1.486,6.689-.33S196.262,722,196.262,722Z" transform="translate(-100.396 -624.69)" opacity="0.1"/><path d="M194.351,726.7s8.918-1.239,9.5.578S194.351,726.7,194.351,726.7Z" transform="translate(-99.807 -626.249)" opacity="0.1"/><path d="M196.262,732.5c.33.083,8.588.661,8.753,2.229S196.262,732.5,196.262,732.5Z" transform="translate(-100.396 -628.164)" opacity="0.1"/><rect width="70.716" height="40.166" rx="10.467" transform="translate(29.528 109.416)" fill="#a4c0dd"/><ellipse cx="2.608" cy="2.608" rx="2.608" ry="2.608" transform="translate(62.278 126.891)" fill="#e7effd"/><path d="M117.466,704.252s6.777,5.181,12.018,1.233C129.484,705.485,120.624,706.291,117.466,704.252Z" transform="translate(-76.094 -619.453)" opacity="0.1"/><path d="M167.093,706.265s6.777,5.181,12.018,1.233C179.111,707.5,170.252,708.3,167.093,706.265Z" transform="translate(-91.4 -620.074)" opacity="0.1"/><path d="M152.048,626.146a16.157,16.157,0,0,1-2.46,8.6,24.752,24.752,0,0,0-3.662-12.826c-2.254-3.462-9.1-9.53-13.814-7.841a3.344,3.344,0,0,0-2.058,2.213c-.467,1.773.9,2.511,1.777,3.922a12.009,12.009,0,0,1,1.641,8.1,11.413,11.413,0,0,1-.237,1.124c-.741,2.782-2.44,5.966-.687,8.25,1.222,1.59,3.848,2.139,4.2,4.112a2.407,2.407,0,0,1,.034.558c-.081,1.327-1.215,2.5-1.709,3.8a6.244,6.244,0,0,0,.349,4.606c.785,2.014,2.034,4.051,2.335,6.176a12.206,12.206,0,0,1-1.12,6.1,27.343,27.343,0,0,0-1.861,5.743c-.545,3.75.829,8.085-1.53,11.049a1.649,1.649,0,0,1-1.032.7c-1.513.159-1.255-2.558-2.47-3.472a10.63,10.63,0,0,1-.321,4.7,3.622,3.622,0,0,1-3.631,2.484q-.269-1.771-.538-3.547a10.23,10.23,0,0,1-3.756,2.352,27.38,27.38,0,0,1,3.919-10.616c-3.973,1.912-6.288,6.054-8.355,9.946-1.289,2.433-2.623,5.093-2.173,7.811.183,1.107.66,2.159.765,3.276a2.724,2.724,0,0,1-1.34,2.843,2.422,2.422,0,0,1-2.616-.812c-.037-.044-.074-.088-.112-.135a2.668,2.668,0,0,1-.179-.254,3.928,3.928,0,0,1-.3-.535,10.366,10.366,0,0,1-.636-2.074l-.071-.3c-1.049-4.612-2-9.367-1.228-14.03a26.355,26.355,0,0,0,.741-5.164,9.55,9.55,0,0,0-.589-2.88c-.92-2.579-2.694-4.951-3.706-7.55a.41.41,0,0,1-.024-.058c-.531-1.377-.792-3.1.189-4.2a8.545,8.545,0,0,1,1.885-1.276c1.963-1.279,2.843-3.706,3.2-6.02a20.287,20.287,0,0,0,.247-3.167c2.66-.934,6.21-2.308,6.6-2.095.552.3,6.088-.217,6.321-.24a8.272,8.272,0,0,0,3.875-4.494c.064-.186.122-.379.176-.579a16.245,16.245,0,1,1,23.956-14.3Z" transform="translate(-72.286 -590.354)" opacity="0.1"/><path d="M133.235,620.676c-.742,2.783-2.439,5.967-.685,8.251,1.222,1.592,3.847,2.138,4.2,4.113.279,1.563-1.112,2.876-1.674,4.362-1.34,3.544,2.152,7.028,2.682,10.779.576,4.069-2.389,7.779-2.98,11.846-.545,3.749.829,8.083-1.53,11.047a1.638,1.638,0,0,1-1.032.7c-1.512.161-1.256-2.556-2.471-3.47a10.576,10.576,0,0,1-.321,4.7,3.619,3.619,0,0,1-3.63,2.483l-.538-3.548a10.269,10.269,0,0,1-3.757,2.353,27.4,27.4,0,0,1,3.919-10.615c-3.971,1.913-6.287,6.053-8.353,9.946-1.291,2.432-2.623,5.092-2.173,7.808.183,1.108.66,2.159.765,3.277a2.722,2.722,0,0,1-1.341,2.842,2.461,2.461,0,0,1-2.727-.945,7.133,7.133,0,0,1-1.116-2.865c-1.078-4.708-2.086-9.57-1.3-14.336a26.267,26.267,0,0,0,.739-5.164c-.137-3.809-2.947-6.931-4.319-10.487-.532-1.377-.79-3.1.19-4.2a8.613,8.613,0,0,1,1.887-1.275c1.962-1.28,2.843-3.7,3.2-6.019a20.861,20.861,0,0,0-.213-7.536c-.792-3.71-2.609-7.331-2.159-11.1.442-3.7,2.98-6.758,4.687-10.076a23.853,23.853,0,0,0,2.417-13.932c-.294-2.225-.807-4.8.7-6.462,1.811-2,5.318-1.245,7.385-2.974a14.792,14.792,0,0,0,2.247-3.22,7.889,7.889,0,0,1,8.429-3.01c1.42.407,2.7,1.215,4.1,1.672,1.983.645,4.118.562,6.188.81s4.263.944,5.455,2.655c.633.908.919,2.016,1.5,2.958,1.245,2.02,3.622,2.992,5.42,4.54a10.521,10.521,0,0,1,2.962,11.238c-1.074,2.99-3.558,5.633-3.347,8.8.087,1.3.64,2.579.462,3.872-.5,3.592-5.715,4.311-7.516,7.459.143-5.162-.847-10.48-3.664-14.807-2.255-3.463-9.1-9.53-13.813-7.842a3.345,3.345,0,0,0-2.058,2.214c-.466,1.773.9,2.51,1.776,3.923A11.927,11.927,0,0,1,133.235,620.676Z" transform="translate(-72.286 -582.269)" fill="#293b8f"/><g transform="translate(32.847 13.634)" opacity="0.2"><path d="M112.587,656.683a20.847,20.847,0,0,0-.45-4.83c-.674-3.154-2.082-6.244-2.215-9.414-.181,3.528,1.469,6.939,2.215,10.43A20.819,20.819,0,0,1,112.587,656.683Z" transform="translate(-106.61 -614.023)"/><path d="M128.873,699.4c.275-.5.56-1,.866-1.487-3.971,1.913-6.287,6.053-8.353,9.946-1.2,2.252-2.423,4.7-2.242,7.207a16.233,16.233,0,0,1,2.242-6.192C123.3,705.277,125.423,701.47,128.873,699.4Z" transform="translate(-109.453 -631.133)"/><path d="M117.321,724.19A2.394,2.394,0,0,1,116,726.169a2.462,2.462,0,0,1-2.727-.945,7.131,7.131,0,0,1-1.116-2.865,51.012,51.012,0,0,1-1.571-10.242,46.852,46.852,0,0,0,1.571,11.258,7.131,7.131,0,0,0,1.116,2.865,2.462,2.462,0,0,0,2.727.945,2.722,2.722,0,0,0,1.341-2.842C117.336,724.292,117.327,724.241,117.321,724.19Z" transform="translate(-106.818 -635.513)"/><path d="M145.493,632.268a11.286,11.286,0,0,1-.366,2.4c-.55,2.063-1.624,4.346-1.429,6.32a33.847,33.847,0,0,1,1.429-5.3,11.438,11.438,0,0,0,.366-3.414Z" transform="translate(-117.025 -610.886)"/><path d="M120.335,607.674a23.421,23.421,0,0,0-.194-3.6c-.116-.879-.265-1.813-.311-2.723a20.362,20.362,0,0,0,.311,3.738A23.306,23.306,0,0,1,120.335,607.674Z" transform="translate(-109.67 -601.351)"/><path d="M149.975,655.047c0-.028-.015-.052-.021-.079-.24,1.174-1.207,2.246-1.653,3.426a4.842,4.842,0,0,0-.277,2.208,4.652,4.652,0,0,1,.277-1.192C148.863,657.923,150.254,656.61,149.975,655.047Z" transform="translate(-118.357 -617.887)"/><path d="M109.919,693.282c-.136-3.809-2.947-6.931-4.319-10.487a7.043,7.043,0,0,1-.441-1.734,5.845,5.845,0,0,0,.441,2.749c1.349,3.5,4.083,6.575,4.3,10.3C109.92,693.834,109.929,693.559,109.919,693.282Z" transform="translate(-105.139 -625.935)"/><path d="M157.006,621.233c-2.255-3.463-9.1-9.53-13.813-7.842a3.345,3.345,0,0,0-2.058,2.214,2.4,2.4,0,0,0-.036,1.186c.012-.057.02-.112.036-.171a3.346,3.346,0,0,1,2.058-2.214c4.709-1.689,11.559,4.379,13.813,7.842a25.054,25.054,0,0,1,3.671,13.343A25.57,25.57,0,0,0,157.006,621.233Z" transform="translate(-116.212 -604.974)"/><path d="M176.94,635.463c-.5,3.585-5.692,4.308-7.5,7.439q0,.518-.012,1.035c1.8-3.148,7.019-3.867,7.516-7.459a4.412,4.412,0,0,0,0-1.064C176.942,635.431,176.942,635.447,176.94,635.463Z" transform="translate(-124.966 -611.857)"/><path d="M182.966,615.886c-1.074,2.99-3.558,5.633-3.347,8.8,0,.047.011.093.015.139.233-2.791,2.359-5.217,3.332-7.927a9.947,9.947,0,0,0,.552-3.864A9.771,9.771,0,0,1,182.966,615.886Z" transform="translate(-128.106 -604.955)"/><path d="M144.231,706.366a1.639,1.639,0,0,1-1.032.7c-1.512.161-1.256-2.556-2.471-3.47.03.36.058.723.079,1.086,1.122.972.916,3.556,2.393,3.4a1.638,1.638,0,0,0,1.032-.7c1.346-1.691,1.477-3.828,1.442-6.047A7.977,7.977,0,0,1,144.231,706.366Z" transform="translate(-116.116 -632.187)"/><path d="M136.73,710.424a3.619,3.619,0,0,1-3.63,2.483l-.538-3.548a10.269,10.269,0,0,1-3.569,2.28c-.068.362-.135.724-.188,1.088a10.266,10.266,0,0,0,3.757-2.353l.538,3.548a3.618,3.618,0,0,0,3.63-2.483,8,8,0,0,0,.417-3.21A6.827,6.827,0,0,1,136.73,710.424Z" transform="translate(-112.438 -634.314)"/><path d="M147.941,688.061a18.168,18.168,0,0,0-.137,2.875,14.848,14.848,0,0,1,.137-1.859c.563-3.877,3.281-7.429,3.036-11.277C150.759,681.263,148.454,684.527,147.941,688.061Z" transform="translate(-118.295 -624.929)"/></g></g></g><g transform="translate(737.755 756.909)"><g transform="translate(0 0)"><ellipse cx="20.271" cy="2.516" rx="20.271" ry="2.516" transform="translate(28.661 208.866)" fill="#7395ba"/><path d="M87.243,912.8l-1.6-3.116-37.324-.044-1.581,3.1Z" transform="translate(-18.059 -701.509)" fill="#7395ba"/><ellipse cx="18.703" cy="2.516" rx="18.703" ry="2.516" transform="translate(30.229 204.787)" fill="#89a7c7"/><path d="M135.062,453.674a1.821,1.821,0,0,1-1.531,2.01h0a1.821,1.821,0,0,1-1.531-2.01V273.011A1.821,1.821,0,0,1,133.531,271h0a1.821,1.821,0,0,1,1.531,2.011Z" transform="translate(-84.668 -248.687)" fill="#7395ba"/><path d="M133.67,453.976c0,1.112-.316,2.014-.835,2.014h0c-.519,0-.835-.9-.835-2.014V273.014c0-1.112.316-2.014.835-2.014h0c.519,0,.835.9.835,2.014Z" transform="translate(-84.738 -248.687)" fill="#89a7c7"/><path d="M87.957,204.438H47.629L52.077,169H83.4Z" transform="translate(-18.754 -169)" fill="#ffd396"/><path d="M130.255,347.116H28.276L57.323,168.292l40.159.335Z" transform="translate(-28.276 -133.218)" fill="#fff8e8" opacity="0.52"/><path d="M92.113,234.25H54.629L56.014,222H90.4Z" transform="translate(-24.222 -210.406)" fill="#fff6e5" opacity="0.6"/></g></g><g transform="translate(518.929 778.019)"><ellipse cx="137" cy="14.5" rx="137" ry="14.5" transform="translate(0.071 193.981)" fill="#edf6fa"/><g transform="translate(8.192 13.79) rotate(-3)"><path d="M194.49,57.215C144.49,46.977,62.663-1.274,51.026.026S5.076,32.359,1.77,68.08s-4.794,23.439,22.061,41.473,68.921-1.874,96.46,5.055,85.7,11.725,103.393-3.418S244.489,67.451,194.49,57.215Z" transform="translate(0 88.353)" fill="url(#ae)"/><path d="M1.742.029c-7.274.624,9.985,8.75,19.509,14.476-5.869,6.5,78.821,56.933,121.967,20.444,6.226.294,2.65,16.785,9.829,21.013,12.015,7.074,41.513,1.758,48.649-2.509C228.042,8.628,9.016-.595,1.742.029Z" transform="translate(40.348 91.254) rotate(9)" fill="#e8be5f"/><g transform="matrix(-0.927, -0.375, 0.375, -0.927, 220.447, 185.552)"><path d="M12.362,19.182,20.035,17.9,23.871,6.821,12.788,0,0,19.182H12.362Z" transform="translate(149.646 14.429)" fill="#ffcfc6"/><path d="M5.82,31.9c1.453,0,5.471,1.918,5.471,1.918S37.444,26.338,37.444,17.9a17.9,17.9,0,0,0-35.807,0C1.637,27.791-4.067,31.9,5.82,31.9Z" transform="matrix(0.978, 0.208, -0.208, 0.978, 167.74, 12.378)" fill="#ffcfc6"/><path d="M65.509,20.033S22.03,15.344,14.357,16.2A95.03,95.03,0,0,0,3.274,17.9S-1.841,11.081.716,8.1A18.448,18.448,0,0,1,5.831,3.835s4.689,1.279,8.1,0S51.869-2.986,57.836,2.13,65.509,20.033,65.509,20.033Z" transform="translate(19.344 79.651)" fill="#2d4d8e"/><path d="M63.94,0S35.38,8.1,30.265,43.906v3.41S24.614,37.4,22.592,35.38C20.248,33.036,11.936,11.936,12.362,9.8a5.108,5.108,0,0,0,0-2.984L0,8.1v3.836S6.607,31.757,7.033,36.446s16.411,37.3,16.411,37.3,5.968,12.362,16.2,0S50.726,52.858,50.726,52.858L63.94,27.281Z" transform="translate(23.896 4.625)" fill="#2d4d8e"/><path d="M23.9,23.173,10.256,27.862s-12.788,9.378-9.8,0S17.076-1.977,20.912.155s8.45,7.422,7.422,8.187S20.486,14.648,23.9,23.173Z" transform="translate(0 75.658)" fill="#243f75"/><path d="M19.154,17,8.142,11.623s-13.316-2.049-5.89-5.89S30.165-2.2,31.189,1.38s.618,9.535-.459,9.377S22.226,9.831,19.154,17Z" transform="translate(6.391 2.077)" fill="#243f75"/><path d="M7.247,39.643,0,0,49.874,5.968l8.951,35.807Z" transform="translate(74.253 73.133)" fill="#3f3d56"/><path d="M5.968,35.38,0,0,45.4,5.328l8.738,32.184Z" transform="translate(77.024 75.904)" fill="#fff"/><path d="M1.626,32.759S-3.916,8.888,5.462,3.773,80.486-2.2,85.6,7.183s2.558,9.378,2.558,9.378L74.518,31.907l11.083.853A3.979,3.979,0,0,1,81.765,36.6c-3.836.426-15.772,4.689-26,1.705s-16.2,5.968-16.2,5.968Z" transform="translate(80.669 0)" fill="#59b4d0"/><path d="M2.557,39.217l-1.705.426L0,37.938,13.641,0l1.283.49.422,2.493Z" transform="translate(73.401 33.49)" fill="#b3b3b3"/><path d="M0,39.643,13.641,0,65.219,7.673,49.874,45.185Z" transform="translate(74.253 33.917)" fill="#d0cde1"/><path d="M0,2.131V0L37.938,4.263l-.426,2.131Z" transform="translate(81.074 72.708)" fill="#3f3d56"/><path d="M0,16.625,5.968,0,44.758,4.689l-6.82,15.772Z" transform="translate(81.926 53.951)" fill="#3f3d56"/><path d="M17.219,2.984,15.94,6.394S6.136,23.445,1.021,20.035,11.678,0,11.678,0h5.115Z" transform="translate(120.134 41.795)" fill="#ffcfc6"/><path d="M18.756,8.1,7.46,15.985,0,10.231,9.378,0Z" transform="translate(116.61 28.283)" fill="#59b4d0"/><path d="M6.6,17.2C.619,13.662,0,3.135,0,3.135S16.718-1.349,25.068.408c.37.076-2.4,7.3-1.8,7.471,9.778,2.784,11.739,6.583.658,9.409-3.73.952,2.052-1.828-.09-1.293C17.305,17.628,11.376,20.024,6.6,17.2Z" transform="matrix(-0.966, 0.259, -0.259, -0.966, 204.708, 21.871)" fill="#e8be5f"/><path d="M0,16.2,1.7,0,31.118,1.705,5.541,2.131Z" transform="matrix(0.996, 0.087, -0.087, 0.996, 103.604, 13.493)" opacity="0.2"/><path d="M24.189,38.725C32.826,36.351,35.943,33.47,35.943,21.7S30.274,0,18.5,0,0,8.22,0,19.991c0,3.237,15.261,3.2,16.739,6.334,1.512,3.224-4.4,10.285-4.461,12.315C12.216,39.959,19.666,38.725,24.189,38.725Z" transform="matrix(0.978, 0.208, -0.208, 0.978, 175.76, 8.623)" fill="#2f2e41"/><path d="M0,0,40.069,1.279,40.5,2.984.426,1.573Z" transform="translate(82.566 93.381)" fill="#e6e6e6"/><path d="M0,0,40.069,1.279,40.5,2.984.426,1.573Z" transform="translate(84.011 97.717)" fill="#e6e6e6"/><path d="M0,0,40.07,1.279,40.5,2.984.426,1.573Z" transform="translate(81.713 89.119)" fill="#e6e6e6"/><path d="M0,0,40.069,1.279,40.5,2.984.426,1.573Z" transform="translate(81.287 85.709)" fill="#e6e6e6"/><path d="M0,0,11.5,1.077l.122,1.437L.122,1.325Z" transform="translate(108.717 81.374)" fill="#f6c050"/><path d="M11.968,45.3S.885,47,.458,44.443-2.1,3.522,8.557,2.243,72.072-4.578,66.53,8.637,52.463,20.146,52.463,20.146L16.23,16.31Z" transform="translate(91.381 30.671)" fill="#59b4d0"/><path d="M2.249,0,.97,5.115S-2.44,20.887,3.528,20.035,11.2,4.263,11.2,4.263L10.774.853Z" transform="translate(91.151 75.24)" fill="#ffcfc6"/></g><path d="M22.28,0C2.333,25.1-8.69,53.9,8.535,83.521" transform="translate(13.648 110.888) rotate(3)" fill="none" stroke="#000" stroke-width="1" opacity="0.08"/><path d="M0,0,18.2,2.561" transform="translate(14.95 127.655) rotate(13)" fill="none" stroke="#707070" stroke-width="1" opacity="0.079"/><path d="M0,0,18.2,2.561" transform="matrix(0.982, 0.191, -0.191, 0.982, 5.122, 147.706)" fill="none" stroke="#707070" stroke-width="1" opacity="0.079"/><path d="M0,0,18.2,2.561" transform="translate(2.062 173.403) rotate(3)" fill="none" stroke="#707070" stroke-width="1" opacity="0.079"/><path d="M14.408,0S-11.28,31.48,5.944,61.1" transform="translate(95.877 137.649) rotate(3)" fill="none" stroke="#000" stroke-width="1" opacity="0.08"/><path d="M0,0,18.2,2.561" transform="translate(92.897 152.116) rotate(3)" fill="none" stroke="#707070" stroke-width="1" opacity="0.079"/><path d="M0,0,18.2,2.561" transform="translate(87.811 166.321) rotate(3)" fill="none" stroke="#707070" stroke-width="1" opacity="0.079"/><path d="M0,0,18.2,2.561" transform="translate(85.536 182.12) rotate(3)" fill="none" stroke="#707070" stroke-width="1" opacity="0.079"/></g></g><g transform="translate(202.857 661.909)"><ellipse cx="93.5" cy="11" rx="93.5" ry="11" transform="translate(0.143 329.091)" fill="#ebf6fa"/><path d="M1332.586,408.945c-.779.1.225,15.9,1.452,16.064a6.29,6.29,0,0,0,1.991,0s.559-8.08.552-8.684S1333.364,408.85,1332.586,408.945Z" transform="translate(-1210.333 -92.848)" fill="#243f75"/><path d="M1332.586,408.945c-.779.1.225,15.9,1.452,16.064a6.29,6.29,0,0,0,1.991,0s.559-8.08.552-8.684S1333.364,408.85,1332.586,408.945Z" transform="translate(-1270.993 -93.751)" fill="#243f75"/><path d="M1370.378,269s-6.691,15.774-1.338,20.076c1.729,1.39,3.79,4.038,4.015,1.434C1373.527,285.053,1370.378,269,1370.378,269Z" transform="translate(-1305.803 33.858)" fill="#243f75"/><path d="M1353.925,283.136s4.015,15.774,5.353,15.774,13.383,2.868,14.721-1.434S1363.04,280.112,1353.925,283.136Z" transform="translate(-1289.35 39.799)" fill="#243f75"/><path d="M1321.625,276s-2.677,0-2.677,1.434a16.572,16.572,0,0,0,1.338,7.17c1.338,2.868,2.677,4.3,2.677,7.17s-.122,8.6,1.338,8.6c1.338,0,3.821,3.938,4.015,2.868.581-3.208-2.677-14.34-2.677-14.34Z" transform="translate(-1196.827 36.896)" fill="#243f75"/><path d="M1307,197.732s6.692,11.472,8.03,20.076,5.353,15.774,8.03,21.51,2.677,14.34,5.353,20.076,13.383,31.549,13.383,35.851,2.677,12.906,1.338,15.774,4.015,11.472,4.015,14.34-1.338,8.6,1.339,8.6,2.676,5.736,5.353,5.736,6.691,1.434,6.691-1.434,4.015,2.868,4.015,1.434,2.677-1.434,2.677-2.868-5.353-8.6-6.691-10.038-5.353-12.906-5.353-14.34-2.677-10.038-2.677-14.34-2.677-45.889-8.03-55.927-8.03-14.34-8.03-20.076,0-22.945-1.338-25.813S1307,197.732,1307,197.732Z" transform="translate(-1219.675 1.876)" fill="#ffcfc6"/><path d="M1394.487,125.757l-8.03-41.587L1359.691,77,1353,111.417l9.368,25.813Z" transform="translate(-1308.5 -49.475)" fill="#ffcfc6"/><path d="M1376.93,206.549s1.338,21.51-2.676,34.417c-3.081,9.9,0,20.076,0,27.246s1.338,38.719,1.338,38.719,1.338,7.17,2.676,10.038,2.677,10.038,4.015,11.472,6.692,12.906,5.353,14.34-4.015,0-4.015,0-8.03,2.868-10.706,0-8.03-12.906-8.03-15.774V304.063c0-1.434-10.706-30.115-9.368-45.889s0-31.549,0-37.285S1352.841,175,1352.841,175h17.4Z" transform="translate(-1301.649 -6.94)" fill="#ffcfc6"/><path d="M1347.513,110.706s6.691,21.51,5.353,28.681,0,8.6-4.015,8.6-8.03-8.6-9.368-11.472S1334.13,99.234,1347.513,110.706Z" transform="translate(-1246.805 -35.859)" fill="#ffcfc6"/><path d="M1378.5,112.368s0,28.681,2.677,34.417,10.706,21.51,10.706,31.549-2.676,8.6,0,14.34,4.015,7.17,2.677,8.6,2.676,4.3,2.676,5.736,0,5.736,1.338,7.17,0,4.3,1.338,8.6,4.015,14.34,2.677,15.774S1390.545,240,1386.53,240s-10.707-1.434-16.06-1.434-14.721,2.868-16.059,0-12.044,2.868-14.721,2.868-9.368,2.868-9.368,0-1.338-21.51,0-28.681,0-17.208,0-20.076-1.338-2.868,1.339-5.736,2.676-5.736,2.676-8.6,2.677-10.038,2.677-12.906v-5.736l-6.692-37.285S1343.705,98.027,1378.5,112.368Z" transform="translate(-1285.821 -36.086)" fill="#ff9fa6"/><path d="M1356.029,83.609c0,7.067,8.858,16.559,15.452,16.559s11.239-8.739,11.239-15.806-4.667-13.714-11.239-14.3C1354.624,68.556,1356.029,76.544,1356.029,83.609Z" transform="translate(-1300.747 -52.567)" opacity="0.1"/><path d="M1401.323,151.3c-.947,1.014-2.677-11.472-5.353-8.6s-4.015,5.736-4.015,1.434,1.338-11.472-8.03-10.038-13.383-7.17-13.383-14.34V96.8l-16.059-8.6s0,15.774-2.676,22.944,9.368,21.51,8.03,24.378,0,14.34-8.03,10.038-8.03-7.17-6.692-15.774-1.338-10.038-4.015-11.472-1.338-11.472,0-15.774,1.338-11.472,2.677-15.774,0-14.34,6.692-20.076,13.383-10.038,16.059-8.6a7.616,7.616,0,0,1,3.4,4.619s9.988-11.789,14,6.853c2.774,12.882,5.353,20.076,2.677,24.379s0,14.34,5.353,15.774,8.03,11.472,6.692,15.774,2.677,1.434,2.677,4.3S1402.662,149.862,1401.323,151.3Z" transform="translate(-1297.938 -57.806)" fill="#243f75"/><path d="M1356.029,82.609c0,7.067,8.858,16.559,15.452,16.559s11.239-8.739,11.239-15.806-4.667-13.714-11.239-14.3C1354.624,67.556,1356.029,75.544,1356.029,82.609Z" transform="translate(-1300.747 -53.001)" fill="#ffcfc6"/><path d="M1356.232,74.623c0,7.524,5.692,13.623,12.714,13.623,3.232,0,9.1,2.25,11.375-1.434,1.364-2.211-1.339-8.6,0-11.472,3.051-6.541-1.008-14.34-8.03-14.34S1356.232,67.1,1356.232,74.623Z" transform="translate(-1299.687 -56.42)" fill="#ffcfc6"/><path d="M1397.171,144.939c-4.015-1.434-13.383-8.6-18.736-15.774s-5.353-24.378-2.677-28.681,12.045,1.434,12.045,1.434,5.353,15.774,6.691,20.076S1397.171,144.939,1397.171,144.939Z" transform="translate(-1339.287 -39.977)" fill="#ffcfc6"/><path d="M1395.694,148.644s-2.044,4.4-4.721,2.964-8.413-3.445-8.413-13.483.7-25.436-.636-28.3-8.03-1.434-9.368-4.3-4.015-2.868-4.015-7.17-1.339-8.6,1.338-8.6,17.4,5.736,17.4,8.6,0,2.868,1.339,7.17S1398.371,135.738,1395.694,148.644Z" transform="translate(-1330.796 -43.944)" opacity="0.1"/><path d="M1384.412,63s-4.015,5.736-9.368,5.736c0,0-4.015,6.978-6.691,9.225A71.328,71.328,0,0,0,1363,83.076s1.338-10.038,4.015-11.472,4.015-8.6,9.368-7.17S1384.412,63,1384.412,63Z" transform="translate(-1311.808 -55.552)" fill="#243f75"/><path d="M1355.541,63s8.029,2.868,6.691,8.6,1.338,21.51,1.338,21.51-1.163-11.413,0-15.774C1366.247,67.3,1359.556,63,1355.541,63Z" transform="translate(-1281.598 -55.552)" fill="#243f75"/><path d="M1355,67.928l8.39-1.009,3.992-3.05h1.338l4.015,1.434,4.015,4.733,1.338-3.3L1371.4,61h-5.469l-10.591,1.434Z" transform="translate(-1294.777 -56.42)" fill="#243f75"/><path d="M1373.141,270.061s0,1.375-6.418,1.375-6.418-1.375-6.418-1.375a2,2,0,0,0,0,2.752c1.283,1.375,3.851,1.375,7.7,1.375,2.568,0,5.166.029,6.449-1.347S1373.141,270.061,1373.141,270.061Z" transform="translate(-1297.836 34.319)" fill="#243f75"/><path d="M1327.632,271s1.362,1.463-5.056,1.463-5.65-1.463-5.65-1.463-2.052,1.463-.768,2.839,3.851,1.375,7.7,1.375c2.568,0,3.827.029,5.111-1.346S1327.632,271,1327.632,271Z" transform="translate(-1193.467 34.726)" fill="#243f75"/><path d="M1353.274,294.217s1.338,1.434,1.338,0-1.338-2.868,6.691-4.3,10.36-.211,10.532,1.328,1.53-5.472-9.194-4.2C1350.6,288.481,1353.274,294.217,1353.274,294.217Z" transform="translate(-1286.023 41.624)" fill="#243f75"/><path d="M1308.091,298.737s-1.338-5.736,1.338-7.17,9.533-2.617,11.458-1.309a5.5,5.5,0,0,1,2.251,3.38s-4.341-2.071-8.356-.637-6.281,2.218-5.147,5.412S1308.091,298.737,1308.091,298.737Z" transform="translate(-1176.602 42.84)" fill="#243f75"/><path d="M1322.083,294s1.338,5.736-8.03,5.736-6.773-4.8-6.773-4.8Z" transform="translate(-1174.535 44.709)" fill="#243f75"/><path d="M1342.311,165.127s33.457,1.434,40.149,5.736S1382.459,162.259,1342.311,165.127Z" transform="translate(-1284.427 -11.408)" opacity="0.1"/><path d="M1345.562,142s9.369,5.736,10.707,10.038S1357.607,144.868,1345.562,142Z" transform="translate(-1260.914 -21.264)" opacity="0.1"/><path d="M1344,171.484s17.4,0,21.412,1.434C1365.413,172.918,1360.06,167.182,1344,171.484Z" transform="translate(-1267.381 -9.161)" opacity="0.1"/><path d="M1410.736,96.434c-1.338,4.3-2.677,57.361-2.677,57.361L1392,152.361,1405.383,95l2.677,2.868Z" transform="translate(-1376.942 -41.663)" fill="#ff7474"/><path d="M1423.766,96.434l-12.044,55.927-14.721-4.3L1419.751,95l1.339,2.868Z" transform="translate(-1396.663 -41.663)" fill="#a3c4ff"/><path d="M1390.692,96l6.691,57.361H1384L1386.676,96l2.677,1.434Z" transform="translate(-1352.882 -41.229)" fill="#f6c050"/><path d="M1400.338,142.455,1415.059,98,1399,142.455Z" transform="translate(-1390.633 -40.361)" opacity="0.2"/><path d="M1396.316,144.827,1401.767,98,1395,145.09Z" transform="translate(-1371.988 -40.361)" opacity="0.2"/><path d="M1390.389,146.261,1389.149,98l-.076,48.524Z" transform="translate(-1352.678 -40.361)" opacity="0.2"/><path d="M1381.5,100.846s.669-22.227,11.375-7.887" transform="translate(-1345.029 -44.641)" fill="none" stroke="#a67c52" stroke-miterlimit="10" stroke-width="1"/><path d="M1384.5,101.041s7.361-22.227,12.714-9.321" transform="translate(-1353.382 -44.836)" fill="none" stroke="#a67c52" stroke-miterlimit="10" stroke-width="1"/><path d="M1385.5,102.477s10.872-22.227,18.066-12.189" transform="translate(-1361.073 -44.838)" fill="none" stroke="#a67c52" stroke-miterlimit="10" stroke-width="1"/><path d="M1394.695,147.8s-2.677,4.3-5.353,2.868-8.03,0-8.03-10.038,1.339-28.681,0-31.549-8.03-1.434-9.368-4.3-4.015-2.868-4.015-7.17-1.338-8.6,1.338-8.6,17.4,5.736,17.4,8.6,0,2.868,1.338,7.17S1397.371,134.889,1394.695,147.8Z" transform="translate(-1328.782 -44.267)" fill="#ffcfc6"/><path d="M1345.074,80.244l-7.806,28.681s-12.268,0-12.268-2.391,6.691-27.486,6.691-27.486S1345.074,77.854,1345.074,80.244Z" transform="translate(-1221.615 -48.716)" fill="#e6e6e6"/><path d="M1336.99,147.361s-4.015,10.038-8.03,8.6-1.338-17.115,0-21.465,1.339-5.782,4.015-10.084,1.339-8.6,1.339-10.038-2.677-12.906,0-14.34c1.558-.835,6.328-6.439,9.368-5.736.546.126,1.338-4.3,2.677-4.3s1.894,5.028,1.339,8.6c-.128.826-1.059,3.4-1.339,4.3-1.338,4.3-5.353,11.472-5.353,17.208S1339.667,141.625,1336.99,147.361Z" transform="translate(-1226.914 -43.833)" fill="#ffcfc6"/></g><g transform="translate(20.581 -94.377)"><path d="M-22.2,0H320.289l19.038,27.664H-50.024Z" transform="translate(1174.419 904.377)" fill="#4483d8"/><path d="M359.889,656.57v16.416a4.109,4.109,0,0,1-2.346,3.714,4.022,4.022,0,0,1-1.676.4l-23.394.5a4.023,4.023,0,0,1-1.81-.382,4.1,4.1,0,0,1-2.393-3.734V656.57Z" transform="translate(937.586 232.19)" fill="#293b8f"/><path d="M392.879,483.859V591.991a2.6,2.6,0,0,1-2.541,2.539L263.83,597.809H263.8a2.607,2.607,0,0,1-2.607-2.539V483.859a2.607,2.607,0,0,1,2.607-2.539H390.271a2.607,2.607,0,0,1,2.607,2.539Z" transform="translate(953.924 289.966)" fill="#edf0ff"/><path d="M194.59,319.15H313.573v99.376L194.59,421.207Z" transform="translate(1027.022 459.335)" fill="#2666c1"/><path d="M281.364,512.712l-35.024.67V507.57l35.024-.67Z" transform="translate(1017.78 397.438)" fill="#293b8f"/><g transform="translate(-74.581 43.377)"><path d="M0,0H36.908V2H0Z" transform="translate(1343.443 763.622) rotate(180)" fill="#19cca3"/><path d="M0,0H36.908V2H0Z" transform="translate(1384.35 763.622) rotate(180)" fill="#95c3fe"/><rect width="14.918" height="1.999" transform="translate(1321.453 768.494) rotate(180)" fill="#19cca3"/><rect width="14.918" height="1.999" transform="translate(1321.453 793.613) rotate(180)" fill="#19cca3"/><rect width="18.599" height="1.999" transform="translate(1330.875 773.518) rotate(180)" fill="#19cca3"/><rect width="18.599" height="1.999" transform="translate(1330.875 778.542) rotate(180)" fill="#95c3fe"/><rect width="18.599" height="1.999" transform="translate(1352.405 778.542) rotate(180)" fill="#f87f7f"/><rect width="14.918" height="1.999" transform="translate(1321.453 788.589) rotate(180)" fill="#fff"/><rect width="5.589" height="1.999" transform="translate(1312.123 823.755) rotate(180)" fill="#fff"/><rect width="18.599" height="1.999" transform="translate(1373.936 778.542) rotate(180)" fill="#95c3fe"/><rect width="14.918" height="1.999" transform="translate(1321.453 783.565) rotate(180)" fill="#19cca3"/><rect width="14.918" height="1.999" transform="translate(1321.453 818.731) rotate(180)" fill="#19cca3"/><rect width="18.599" height="1.999" transform="translate(1330.875 798.636) rotate(180)" fill="#19cca3"/><rect width="18.599" height="1.999" transform="translate(1336.617 803.66) rotate(180)" fill="#19cca3"/><rect width="18.599" height="1.999" transform="translate(1398.337 803.66) rotate(180)" fill="#19cca3"/><rect width="18.599" height="1.999" transform="translate(1330.875 813.708) rotate(180)" fill="#19cca3"/><rect width="18.599" height="1.999" transform="translate(1336.617 808.684) rotate(180)" fill="#19cca3"/><rect width="18.599" height="1.999" transform="translate(1398.337 808.684) rotate(180)" fill="#19cca3"/><path d="M0,0H36.908V2H0Z" transform="translate(1376.456 803.812) rotate(180)" fill="#95c3fe"/><path d="M0,0H18.454V2H0Z" transform="translate(1376.661 808.835) rotate(180)" fill="#f87f7f"/><path d="M0,0H16.209V2H0Z" transform="translate(1355.757 808.835) rotate(180)" fill="#f87f7f"/></g><path d="M194.59,319.15H313.573v16.2l-118.983.437Z" transform="translate(1027.022 459.335)" fill="#2d4e98"/><ellipse cx="3.435" cy="3.435" rx="3.435" ry="3.435" transform="translate(1229.883 783.826)" fill="#f78a8a"/><ellipse cx="3.435" cy="3.435" rx="3.435" ry="3.435" transform="translate(1239.877 783.826)" fill="#f8df89"/><ellipse cx="3.435" cy="3.435" rx="3.435" ry="3.435" transform="translate(1249.872 783.826)" fill="#19cca3"/><path d="M0-.331,388.293-.659V8.005H0Z" transform="translate(1124.419 932.377)" fill="#306dd1"/><path d="M0-4.67H85.087V117.214H0Z" transform="translate(1149.419 944.377)" fill="#2463cb"/><path d="M0-4.67H3.414V109.538L0,117.214Z" transform="translate(1234.419 944.377)" fill="#2260c6"/><rect width="65" height="32" transform="translate(1159.419 945.377)" fill="#3b7ce6"/><rect width="65" height="32" transform="translate(1159.419 982.377)" fill="#3b7ce6"/><rect width="65" height="32" transform="translate(1159.419 1019.377)" fill="#3b7ce6"/><g transform="translate(1189.419 970.377)" fill="#306dd1" stroke="#2260c6" stroke-width="1"><circle cx="2.5" cy="2.5" r="2.5" stroke="none"/><circle cx="2.5" cy="2.5" r="2" fill="none"/></g><g transform="translate(1189.419 1007.377)" fill="#306dd1" stroke="#2260c6" stroke-width="1"><circle cx="2.5" cy="2.5" r="2.5" stroke="none"/><circle cx="2.5" cy="2.5" r="2" fill="none"/></g><g transform="translate(1189.419 1043.377)" fill="#306dd1" stroke="#2260c6" stroke-width="1"><circle cx="2.5" cy="2.5" r="2.5" stroke="none"/><circle cx="2.5" cy="2.5" r="2" fill="none"/></g><path d="M5.78,0H65.859L71,10.059H0Z" transform="translate(1299.419 913.377)" fill="#fff"/><path d="M1330.57,913.377s-14.574-6.509,12.077-7.96c11.6-3.8-16.41-6.171-45.162-6.623" fill="none" stroke="#293b8f" stroke-width="1"/><rect width="6" height="125" transform="translate(1137.419 937.377)" fill="#306dd1"/><rect width="6" height="125" transform="translate(1492.419 937.377)" fill="#306dd1"/><rect width="6" height="92" transform="translate(1451.419 934.377)" fill="#306dd1"/><g transform="translate(1172.757 812.008)"><path d="M9636.727,6707.456c-7.329,0-14.315,44.567-14.315,52.423s8.03,14.489,15.358,14.489,13.274-6.366,13.274-14.222-8.474-52.69-14.317-52.69" transform="translate(-9622.411 -6707.456)" fill="#19cca3"/><line y1="42.399" transform="translate(14.317 35.248)" fill="#838dbe" stroke="#fff" stroke-miterlimit="10" stroke-width="2"/><path d="M9650.923,6786.613s-5.094,10.375-8.432,13.238V6791.8s-6.512-1.968-6.844-10.376" transform="translate(-9628.175 -6746.177)" fill="none" stroke="#fff" stroke-miterlimit="10" stroke-width="2"/><path d="M11.517,0H3.207L0,27.192H29.05L26.025,0Z" transform="translate(30.011 103.05) rotate(180)" fill="#efc58b" stroke="rgba(0,0,0,0)" stroke-miterlimit="10" stroke-width="1"/></g></g><g transform="translate(1318.829 717.54)"><path d="M5.649,1C8.686,1,11,3.358,11,7.5S8.538,15,5.5,15,0,11.642,0,7.5,2.611,1,5.649,1Z" transform="matrix(0.883, -0.469, 0.469, 0.883, 73.881, 101.275)" fill="#fff"/><rect width="17" height="28" transform="translate(124.642 47.346) rotate(-16)" fill="#ffcfc6"/><ellipse cx="120.586" cy="9.237" rx="120.586" ry="9.237" transform="translate(38 287.443)" fill="#ebf6fb"/><path d="M456.591,459.809l10.267-5.134-8.556-23.1-2.255-11.65a8.809,8.809,0,0,0-14.381-5.014h0A8.809,8.809,0,0,0,440.52,427.1l8.37,10.463Z" transform="matrix(0.891, -0.454, 0.454, 0.891, -501.794, -67.679)" fill="#ffcfc6"/><path d="M370.9,460.46l1.894,5.927,8.5,26.626a14.238,14.238,0,0,0,25.779,2.994l27.55-47.217a14.849,14.849,0,0,0,1.124-2.309A14.538,14.538,0,0,0,409.108,434.9l-16.819,35.833-7.7-17.112Z" transform="matrix(0.839, -0.545, 0.545, 0.839, -462.823, -58.066)" fill="#e6e6e6"/><path d="M274.869,656.356l18.824,1.711,10.267-74.439c33.845,5.694,65.774,7.518,93.391.63a17.435,17.435,0,0,0,12.394-22.392C406.44,552,400.617,541.43,393.8,530.58l-45.348,16.257-1.711,6.845-48.369-6.123a17.753,17.753,0,0,0-19.969,16.93Z" transform="translate(-178.801 -384.885)" fill="#2f4193"/><path d="M420.087,707.9h0c-.369-2.6,2.082-5.283,4.288-6.708l23.359-9.377,14.568,1.839,3.441,12.334a6.564,6.564,0,0,1-5.742,7.6l-36.6-.834C420.173,712.311,420.6,711.507,420.087,707.9Z" transform="translate(-349.831 -422.007)" fill="#293b8f"/><path d="M281.047,643.991,299.87,645.7l10.267-74.439c33.845,5.694,65.774,7.518,93.391.63A17.435,17.435,0,0,0,415.922,549.5c-3.305-9.865-9.129-20.436-15.945-31.286l-45.348,16.257-1.711,6.845-48.369-6.123a17.753,17.753,0,0,0-19.969,16.93Z" transform="translate(-189.733 -382.038)" fill="#384caa"/><path d="M423.76,701.28v-5.787c-.37-2.6,4.05-5.133,6.256-6.558l23.9-9.482,14.568,1.839,3.441,12.334a6.564,6.564,0,0,1-5.742,7.6l-31.757.059a87.136,87.136,0,0,1-10.661,0Z" transform="translate(-360.763 -419.16)" fill="#293b8f"/><path d="M23.1,0C40.8-.643,46.2,10.343,46.2,23.1S35.86,43.849,23.1,43.849c-8.331,0-17.9.9-17.876-7.167s-4.072-6.619-4.072-6.619S5.4.643,23.1,0Z" transform="translate(102.436 12.113)" fill="#ffcfc6"/><path d="M301.793,475.4a36.238,36.238,0,0,0,5.773,10.33,49.274,49.274,0,0,0,12.547,10.946c.831.539,1.693,1.055,2.586,1.563l5.1,4.341,18,15.334,49.627-18.821c-10.946-24.325-24.6-43.553-40.251-59.041a28.229,28.229,0,0,0-30.167-11.485l-18.567,4.642C299.838,448.8,297.382,463.128,301.793,475.4Z" transform="translate(-182.618 -361.204)" fill="#e6e6e6"/><path d="M480.023,434.551a1.791,1.791,0,0,1,.037,2.52c-.571.247-11.893,13.148-12.587,12.26a1.783,1.783,0,0,1-1.278-.52L431.654,414.42a1.781,1.781,0,0,1-.517-1.45c-.932-.874,13.93-9.681,14.385-10.16a1.776,1.776,0,0,1,2.223.219Z" transform="translate(-368.995 -355.401)" fill="#3f3d56"/><path d="M433.748,413.133l1.406-.9a1.347,1.347,0,0,0,1.928,1.758l9.1-6.253a1.348,1.348,0,0,0-.354-2.38c.36-.122.942-.854,1.333-.393l30.6,30.071c1.09.531-11.118,11.11-11.125,11.526-.911,1.016-32.3-32.653-32.966-32.676a.488.488,0,0,1,.083-.756Z" transform="translate(-368.128 -355.93)" fill="#fff"/><path d="M364.588,261.524l-9.387,8.85-22.328-22.059,11.332-7.375Z" transform="translate(-263.652 -189.055)" fill="#2666c1"/><path d="M487.364,424.616a.333.333,0,0,1-.46,0c-.1-.286-2.486-2.021-1.952-2.412a.333.333,0,0,1,.46,0c.1.286,2.486,2.021,1.952,2.412Z" transform="translate(-417.274 -359.912)" fill="#e6e6e6"/><path d="M482.605,428.894c-.1-.286-2.486-2.021-1.952-2.412.4-.529,2.118,1.844,2.412,1.953C483.367,428.729,482.9,429.2,482.605,428.894Z" transform="translate(-409.686 -360.9)" fill="#e6e6e6"/><path d="M442.335,444.683c-.042,2.845,4.427,2.845,4.385,0C446.762,441.838,442.293,441.838,442.335,444.683Z" transform="translate(-343.808 -364.617)" fill="#2666c1"/><path d="M375.021,492.062a49.274,49.274,0,0,0,12.547,10.946c.831.539,1.693,1.055,2.586,1.563l5.1,4.341c10.115-13.294,9.545-53.683,9.545-53.683l-15.4,1.54Z" transform="translate(-250.072 -367.536)" opacity="0.2"/><path d="M457.62,475.252l10.267-5.134-8.556-23.1-2.255-11.65c-.6-3.08-4.194-5.74-7.157-6.773-1.8-.628-3.856-7.317-5.921-6.676l1.49,6.676-2.793,1.759h0a8.809,8.809,0,0,0-1.146,12.191l8.37,10.463Z" transform="translate(-362.884 -361.321)" fill="#ffcfc6"/><path d="M385.626,469.061l-13.69,6.845,10.389,32.553a14.241,14.241,0,0,0,10.268,9.524h0a14.241,14.241,0,0,0,15.51-6.527l27.549-47.22a14.537,14.537,0,0,0-4.687-19.76h0a14.537,14.537,0,0,0-20.824,5.868l-16.815,35.829Z" transform="translate(-280.623 -364.541)" fill="#e6e6e6"/><path d="M244.667,602.732A19.253,19.253,0,0,0,262.4,576l-2.835,1.2A16.175,16.175,0,0,1,238.671,598.5l-1.143,2.86a19.152,19.152,0,0,0,7.139,1.368Z" transform="translate(-3.345 -395.341)" fill="#293b8f"/><path d="M259.416,540.117h0a8.349,8.349,0,0,0,8.08-8.344s-21.578-29.55-21.578-64.092S267.5,393.6,267.5,393.6h0a7.147,7.147,0,0,0-10.793.786c-39.349,53.208-41.082,100.921-3.8,142.935A8.351,8.351,0,0,0,259.416,540.117Z" transform="translate(1.923 -352.865)" fill="#59b3cf"/><path d="M158,439h23.863v-6.158l-19.244-5.388Z" transform="translate(53.686 -231.998)" fill="#293b8f"/><path d="M241.121,434.457H178c0,4.745,5.859,8.591,13.086,8.591h36.949c7.227,0,13.086-3.846,13.086-8.591Z" transform="translate(-20.968 -233.609)" fill="#3a93af"/><rect width="8.467" height="9.928" transform="translate(181.665 209.394)" fill="#1e2e7b"/><path d="M0,0H15.4V20.784H0Z" transform="translate(177.816 217.782)" fill="#3549a5"/><rect width="13.086" height="13.712" transform="translate(178.971 249.728)" fill="#1e2e7b"/><path d="M205.5,496.892h26.942l-3.849-16.935H205.5Z" transform="translate(-33.457 -244.085)" fill="#3549a5"/><path d="M241.068,663.124l54.653,25.4.77,3.849h7.7l-.368-5.889a11.249,11.249,0,0,0-6.148-9.335l-58.144-29.422Z" transform="translate(-45.162 -411.856)" fill="#3549a5"/><path d="M414.728,663.124,357,688.526l-.77,3.849h-7.7l.368-5.889a11.249,11.249,0,0,1,6.148-9.335l56.6-29.422Z" transform="translate(-239.606 -411.856)" fill="#3549a5"/><circle cx="8.467" cy="8.467" r="8.467" transform="translate(247.48 279.749)" fill="#253995"/><circle cx="8.467" cy="8.467" r="8.467" transform="translate(104.303 279.749)" fill="#253995"/><path d="M337.528,696.3l6.158-.77,1.54-6.158,20.784-25.4-9.237-9.237-16.44,24.989a17.035,17.035,0,0,0-2.8,9.363Z" transform="translate(-182.42 -413.468)" fill="#3549a5"/><path d="M271.657,588.8H373.793a10.128,10.128,0,0,0,10.128-10.128v-5.49a15.8,15.8,0,0,0-5.738-12.173c-17.241-14.249-32.973-8.931-52.231-7.966a194.513,194.513,0,0,0-54.032,10.8,15.719,15.719,0,0,0-10.391,14.83h0A10.128,10.128,0,0,0,271.657,588.8Z" transform="translate(-141.83 -386.031)" fill="#59b3cf"/><path d="M11.4-.338c6,0,19.256-.173,26.5,14.286,1.9,3.789,1.467,18.062,5.357,30.367C50.436,59.245,59.885,63.54,59.885,68.1c0,3.723-5.782,17.134-15.01,18.453-7.3,1.045-26.92-5.985-30.306-13.109C6.449,72.127,16.489,53.427,11.6,53.427-1.383,53.427,19.7,24.77.261,22.793S-1.583-.338,11.4-.338Z" transform="translate(107.831 5.958) rotate(-7)" fill="#293b8f"/><circle cx="8.467" cy="8.467" r="8.467" transform="translate(149.719 279.749)" fill="#253995"/></g></g></g></svg>